<?xml version="1.0" encoding="utf-8"?>
<!-- Generator: Adobe Illustrator 21.1.0, SVG Export Plug-In . SVG Version: 6.00 Build 0)  -->
<svg version="1.1" id="Layer_1" xmlns="http://www.w3.org/2000/svg" xmlns:xlink="http://www.w3.org/1999/xlink" x="0px" y="0px"
	 viewBox="0 0 493.4 88.2" style="enable-background:new 0 0 493.4 88.2;" xml:space="preserve">
<style type="text/css">
	.st0{fill:#00184E;}
	.st1{fill:#5298C5;}
</style>
<g>
	<g>
		<path class="st0" d="M62.5,4.8c5.9,2.8,10.6,6.7,14.3,11.8c3.7,5.1,6.1,11,7.3,17.8H55.7c-1.3-2.8-3.1-5-5.5-6.6
			c-2.4-1.6-5.1-2.4-8.2-2.4c-4.5,0-8.1,1.7-10.7,5.1c-2.6,3.4-3.9,8-3.9,13.7c0,5.7,1.3,10.3,3.9,13.7c2.6,3.4,6.2,5.1,10.7,5.1
			c3.1,0,5.8-0.8,8.2-2.4c2.4-1.6,4.2-3.8,5.5-6.6h28.4c-1.2,6.8-3.7,12.7-7.3,17.8c-3.7,5.1-8.5,9-14.3,11.8
			c-5.9,2.8-12.5,4.2-20,4.2c-8.7,0-16.2-1.8-22.6-5.5C13.5,78.8,8.6,73.6,5.2,67C1.7,60.4,0,52.8,0,44.3c0-8.5,1.7-16.1,5.2-22.7
			C8.6,15,13.5,9.8,19.9,6.1c6.4-3.7,13.9-5.5,22.6-5.5C49.9,0.6,56.6,2,62.5,4.8z"/>
		<path class="st0" d="M296.2,22.8v11.7h26.7v19.7h-26.7v11.8h30.3v21.5h-57.3V1.5h57.3v21.4H296.2z"/>
		<path class="st0" d="M234.9,5.6c6.7,3.8,12,9,16,15.7c3.9,6.7,5.9,14.3,5.9,22.7c0,8.4-2,16-5.9,22.7c-3.9,6.7-9.3,12-16,15.8
			c-6.8,3.8-14.1,5.7-22.2,5.7c-8.1,0-15.5-1.9-22.3-5.7c-6.8-3.8-12.1-9.1-16.1-15.8c-4-6.7-5.9-14.3-5.9-22.7c0-8.4,2-16,5.9-22.7
			c4-6.7,9.3-12,16.1-15.7c6.8-3.8,14.2-5.6,22.3-5.6S228.2,1.9,234.9,5.6z M200.2,30c-2.9,3.4-4.4,8.1-4.4,14
			c0,5.8,1.5,10.5,4.4,13.9c2.9,3.4,7.1,5.2,12.5,5.2c5.3,0,9.5-1.7,12.4-5.2c2.9-3.4,4.4-8.1,4.4-13.9c0-5.9-1.5-10.6-4.4-14
			c-2.9-3.4-7-5.2-12.4-5.2C207.3,24.9,203.1,26.6,200.2,30z"/>
		<rect x="125.6" y="34.5" class="st1" width="26.7" height="19.7"/>
		<polygon class="st0" points="125.6,54.1 98.7,54.1 98.7,87.4 156,87.4 156,65.9 125.6,65.9 		"/>
		<polygon class="st0" points="98.7,1.5 98.7,34.5 125.6,34.5 125.6,22.8 156,22.8 156,1.5 		"/>
	</g>
	<g>
		<path class="st0" d="M350.4,5.6v4.3h6.9v3.7h-6.9v4.5h7.8v3.9h-12.7V1.7h12.7v3.9H350.4z"/>
		<path class="st0" d="M386.2,7.6c1.1,1.2,1.7,2.9,1.7,5.1v9.3H383v-8.8c0-1-0.3-1.8-0.8-2.4c-0.5-0.6-1.3-0.9-2.2-0.9
			c-1,0-1.8,0.3-2.3,0.9c-0.6,0.6-0.8,1.5-0.8,2.6v8.5h-4.9v-8.8c0-1-0.3-1.8-0.8-2.4c-0.5-0.6-1.3-0.9-2.2-0.9
			c-1,0-1.8,0.3-2.3,0.9c-0.6,0.6-0.9,1.5-0.9,2.6v8.5h-4.9V6h4.9v2.7c0.4-0.9,1.1-1.6,1.9-2.1c0.9-0.5,1.9-0.8,3.1-0.8
			c1.2,0,2.3,0.3,3.3,0.9c0.9,0.6,1.7,1.4,2.1,2.4c0.6-1,1.3-1.8,2.3-2.4c1-0.6,2-0.9,3.2-0.9C383.6,5.8,385.1,6.4,386.2,7.6z"/>
		<path class="st0" d="M404.6,6.8c1,0.7,1.9,1.6,2.5,2.9c0.6,1.2,0.9,2.7,0.9,4.4c0,1.7-0.3,3.1-0.9,4.4c-0.6,1.2-1.4,2.2-2.5,2.9
			c-1,0.7-2.2,1-3.6,1c-1.2,0-2.3-0.3-3.2-0.8c-0.9-0.6-1.5-1.3-1.9-2.3v10.6H391V6h4.9v2.9c0.4-1,1-1.7,1.9-2.3
			c0.9-0.6,1.9-0.8,3.2-0.8C402.4,5.8,403.6,6.1,404.6,6.8z M396.9,11.1c-0.7,0.7-1,1.7-1,2.9c0,1.2,0.3,2.1,1,2.9
			c0.7,0.7,1.5,1.1,2.6,1.1c1.1,0,1.9-0.3,2.6-1c0.6-0.7,1-1.7,1-2.9c0-1.2-0.3-2.2-1-2.9c-0.6-0.7-1.5-1-2.6-1
			C398.4,10.1,397.6,10.4,396.9,11.1z"/>
		<path class="st0" d="M417.7,6.7c1-0.6,2-0.9,3.2-0.9v5.3h-1.4c-1.3,0-2.3,0.3-3,0.8c-0.7,0.6-1.1,1.5-1.1,2.8v7.3h-4.9V6h4.9v3
			C415.9,8,416.7,7.2,417.7,6.7z"/>
		<path class="st0" d="M437.8,14.9h-11.2c0.1,1.2,0.4,2.1,0.9,2.6c0.6,0.5,1.3,0.8,2.1,0.8c0.7,0,1.3-0.2,1.8-0.5
			c0.5-0.4,0.8-0.8,1-1.4h5.2c-0.2,1.1-0.7,2.1-1.4,3c-0.7,0.9-1.6,1.6-2.7,2.1c-1.1,0.5-2.3,0.8-3.7,0.8c-1.6,0-3-0.3-4.2-1
			c-1.2-0.7-2.2-1.6-2.9-2.9c-0.7-1.2-1-2.7-1-4.4c0-1.7,0.3-3.2,1-4.4c0.7-1.2,1.6-2.2,2.9-2.9c1.2-0.7,2.6-1,4.2-1
			c1.6,0,3,0.3,4.2,1c1.2,0.7,2.1,1.6,2.8,2.8c0.7,1.2,1,2.5,1,4.1C438,14,437.9,14.4,437.8,14.9z M432.1,10.5
			c-0.6-0.5-1.3-0.8-2.2-0.8c-0.9,0-1.7,0.3-2.2,0.8c-0.6,0.5-0.9,1.3-1,2.4h6.3C433,11.8,432.7,11,432.1,10.5z"/>
		<path class="st0" d="M451.1,7.3c1.2,1,2,2.4,2.3,4h-4.6c-0.1-0.7-0.4-1.2-0.9-1.5c-0.5-0.4-1.1-0.6-1.8-0.6c-0.6,0-1,0.1-1.3,0.4
			c-0.3,0.2-0.4,0.6-0.4,1c0,0.5,0.3,0.9,0.8,1.1c0.5,0.2,1.4,0.5,2.5,0.7c1.2,0.3,2.2,0.6,3,0.9c0.8,0.3,1.5,0.8,2,1.5
			c0.6,0.7,0.9,1.6,0.9,2.7c0,0.9-0.2,1.7-0.7,2.4c-0.5,0.7-1.2,1.3-2.2,1.7c-0.9,0.4-2.1,0.6-3.3,0.6c-2.2,0-3.9-0.5-5.2-1.4
			c-1.3-1-2.1-2.3-2.4-4.1h4.8c0.1,0.7,0.4,1.2,0.9,1.6c0.5,0.4,1.2,0.5,2,0.5c0.6,0,1-0.1,1.3-0.4c0.3-0.3,0.4-0.6,0.4-1
			c0-0.6-0.3-1-0.8-1.2c-0.5-0.2-1.4-0.5-2.6-0.8c-1.2-0.2-2.2-0.5-2.9-0.8c-0.8-0.3-1.4-0.8-2-1.4c-0.6-0.6-0.8-1.5-0.8-2.6
			c0-1.4,0.5-2.6,1.6-3.5c1.1-0.9,2.6-1.3,4.6-1.3C448.2,5.8,449.9,6.3,451.1,7.3z"/>
		<path class="st0" d="M465.4,6.6c0.9,0.6,1.5,1.3,2,2.3V6h4.9v16.1h-4.9v-2.9c-0.4,1-1.1,1.7-2,2.3c-0.9,0.6-1.9,0.8-3.2,0.8
			c-1.3,0-2.5-0.3-3.6-1c-1-0.7-1.9-1.6-2.5-2.9c-0.6-1.2-0.9-2.7-0.9-4.4c0-1.7,0.3-3.2,0.9-4.4c0.6-1.2,1.4-2.2,2.5-2.9
			c1-0.7,2.2-1,3.6-1C463.5,5.8,464.5,6,465.4,6.6z M461.3,11.1c-0.6,0.7-1,1.7-1,2.9c0,1.2,0.3,2.2,1,2.9c0.6,0.7,1.5,1,2.6,1
			c1,0,1.9-0.4,2.5-1.1c0.7-0.7,1-1.7,1-2.9c0-1.2-0.3-2.2-1-2.9c-0.7-0.7-1.5-1.1-2.5-1.1C462.8,10.1,461.9,10.4,461.3,11.1z"/>
		<path class="st0" d="M486.2,7.3c1.2,1,2,2.4,2.3,4h-4.6c-0.1-0.7-0.4-1.2-0.9-1.5c-0.5-0.4-1.1-0.6-1.8-0.6c-0.6,0-1,0.1-1.3,0.4
			c-0.3,0.2-0.4,0.6-0.4,1c0,0.5,0.3,0.9,0.8,1.1c0.5,0.2,1.4,0.5,2.5,0.7c1.2,0.3,2.2,0.6,3,0.9c0.8,0.3,1.5,0.8,2,1.5
			c0.6,0.7,0.9,1.6,0.9,2.7c0,0.9-0.2,1.7-0.7,2.4c-0.5,0.7-1.2,1.3-2.2,1.7c-0.9,0.4-2.1,0.6-3.3,0.6c-2.2,0-3.9-0.5-5.2-1.4
			c-1.3-1-2.1-2.3-2.4-4.1h4.8c0.1,0.7,0.4,1.2,0.9,1.6c0.5,0.4,1.2,0.5,2,0.5c0.6,0,1-0.1,1.3-0.4c0.3-0.3,0.4-0.6,0.4-1
			c0-0.6-0.3-1-0.8-1.2c-0.5-0.2-1.4-0.5-2.6-0.8c-1.2-0.2-2.2-0.5-2.9-0.8c-0.8-0.3-1.4-0.8-2-1.4c-0.6-0.6-0.8-1.5-0.8-2.6
			c0-1.4,0.5-2.6,1.6-3.5c1.1-0.9,2.6-1.3,4.6-1.3C483.4,5.8,485,6.3,486.2,7.3z"/>
	</g>
	<g>
		<path class="st0" d="M350.4,32.9v4.3h6.9v3.7h-6.9v4.5h7.8v3.9h-12.7V28.9h12.7v3.9H350.4z"/>
		<path class="st0" d="M371.5,34.6c1.2,1,2,2.4,2.3,4h-4.6c-0.1-0.7-0.4-1.2-0.9-1.5s-1.1-0.6-1.8-0.6c-0.6,0-1,0.1-1.3,0.4
			c-0.3,0.2-0.4,0.6-0.4,1c0,0.5,0.3,0.9,0.8,1.1c0.5,0.2,1.4,0.5,2.5,0.7c1.2,0.3,2.2,0.6,3,0.9c0.8,0.3,1.5,0.8,2,1.5
			c0.6,0.7,0.9,1.6,0.9,2.7c0,0.9-0.2,1.7-0.7,2.4c-0.5,0.7-1.2,1.3-2.2,1.7c-0.9,0.4-2.1,0.6-3.3,0.6c-2.2,0-3.9-0.5-5.2-1.4
			c-1.3-1-2.1-2.3-2.4-4.1h4.8c0.1,0.7,0.4,1.2,0.9,1.6c0.5,0.4,1.2,0.5,2,0.5c0.6,0,1-0.1,1.3-0.4c0.3-0.3,0.4-0.6,0.4-1
			c0-0.6-0.3-1-0.8-1.2c-0.5-0.2-1.4-0.5-2.6-0.8c-1.2-0.2-2.2-0.5-2.9-0.8c-0.8-0.3-1.4-0.8-2-1.4c-0.6-0.6-0.8-1.5-0.8-2.6
			c0-1.4,0.5-2.6,1.6-3.5c1.1-0.9,2.6-1.3,4.6-1.3C368.6,33,370.3,33.5,371.5,34.6z"/>
		<path class="st0" d="M390.1,34c1,0.7,1.9,1.6,2.5,2.9c0.6,1.2,0.9,2.7,0.9,4.4c0,1.7-0.3,3.1-0.9,4.4c-0.6,1.2-1.4,2.2-2.5,2.9
			c-1,0.7-2.2,1-3.6,1c-1.2,0-2.3-0.3-3.2-0.8c-0.9-0.6-1.5-1.3-1.9-2.3V57h-4.9V33.2h4.9v2.9c0.4-1,1-1.7,1.9-2.3
			c0.9-0.6,1.9-0.8,3.2-0.8C387.9,33,389.1,33.4,390.1,34z M382.4,38.4c-0.7,0.7-1,1.7-1,2.9c0,1.2,0.3,2.1,1,2.9
			c0.7,0.7,1.5,1.1,2.6,1.1c1.1,0,1.9-0.3,2.6-1c0.6-0.7,1-1.7,1-2.9c0-1.2-0.3-2.2-1-2.9c-0.6-0.7-1.5-1-2.6-1
			C383.9,37.3,383.1,37.7,382.4,38.4z"/>
		<path class="st0" d="M405.2,33.9c0.9,0.6,1.5,1.3,2,2.3v-2.9h4.9v16.1h-4.9v-2.9c-0.4,1-1.1,1.7-2,2.3c-0.9,0.6-1.9,0.8-3.2,0.8
			c-1.3,0-2.5-0.3-3.6-1c-1-0.7-1.9-1.6-2.5-2.9c-0.6-1.2-0.9-2.7-0.9-4.4c0-1.7,0.3-3.2,0.9-4.4c0.6-1.2,1.4-2.2,2.5-2.9
			c1-0.7,2.2-1,3.6-1C403.2,33,404.3,33.3,405.2,33.9z M401,38.4c-0.6,0.7-1,1.7-1,2.9c0,1.2,0.3,2.2,1,2.9c0.6,0.7,1.5,1,2.6,1
			c1,0,1.9-0.4,2.5-1.1c0.7-0.7,1-1.7,1-2.9c0-1.2-0.3-2.2-1-2.9c-0.7-0.7-1.5-1.1-2.5-1.1C402.5,37.3,401.7,37.7,401,38.4z"/>
		<path class="st0" d="M429.8,34.9c1.1,1.2,1.6,2.9,1.6,5.1v9.3h-4.9v-8.8c0-1.1-0.3-1.9-0.8-2.5c-0.6-0.6-1.3-0.9-2.3-0.9
			c-1,0-1.8,0.3-2.4,1c-0.6,0.6-0.9,1.5-0.9,2.7v8.5h-4.9V33.2h4.9v2.9c0.5-1,1.1-1.7,2.1-2.3c0.9-0.6,2-0.8,3.2-0.8
			C427.3,33.1,428.7,33.7,429.8,34.9z M422.6,27.6c0.3,0.1,0.7,0.3,1.2,0.6c0.4,0.2,0.7,0.4,0.9,0.4c0.2,0.1,0.4,0.1,0.7,0.1
			c0.7,0,1.1-0.5,1.3-1.4h2.5c-0.5,2.8-1.8,4.3-3.9,4.3c-0.4,0-0.8-0.1-1.2-0.2c-0.4-0.1-0.8-0.3-1.2-0.6c-0.3-0.2-0.6-0.3-0.8-0.4
			c-0.2-0.1-0.4-0.1-0.7-0.1c-0.7,0-1.1,0.5-1.3,1.4h-2.5c0.5-2.9,1.8-4.3,3.9-4.3C421.9,27.4,422.2,27.5,422.6,27.6z"/>
		<path class="st0" d="M446.3,34c1.3,0.7,2.2,1.6,3,2.9c0.7,1.2,1.1,2.7,1.1,4.4c0,1.7-0.4,3.1-1.1,4.4c-0.7,1.2-1.7,2.2-3,2.9
			c-1.3,0.7-2.7,1-4.3,1c-1.6,0-3-0.3-4.3-1c-1.3-0.7-2.3-1.6-3-2.9c-0.7-1.2-1.1-2.7-1.1-4.4c0-1.7,0.4-3.1,1.1-4.4
			c0.7-1.2,1.7-2.2,3-2.9c1.3-0.7,2.7-1,4.3-1C443.6,33,445,33.4,446.3,34z M439.6,38.3c-0.6,0.7-1,1.7-1,3c0,1.3,0.3,2.3,1,2.9
			c0.6,0.7,1.4,1,2.4,1c0.9,0,1.7-0.3,2.4-1c0.6-0.7,1-1.7,1-2.9c0-1.3-0.3-2.3-1-3c-0.6-0.7-1.4-1-2.4-1
			C441.1,37.3,440.3,37.6,439.6,38.3z"/>
		<path class="st0" d="M457.6,28v21.3h-4.9V28H457.6z"/>
		<path class="st0" d="M470.1,33.9c0.9,0.6,1.5,1.3,2,2.3v-2.9h4.9v16.1h-4.9v-2.9c-0.4,1-1.1,1.7-2,2.3c-0.9,0.6-1.9,0.8-3.2,0.8
			c-1.3,0-2.5-0.3-3.6-1c-1-0.7-1.9-1.6-2.5-2.9c-0.6-1.2-0.9-2.7-0.9-4.4c0-1.7,0.3-3.2,0.9-4.4c0.6-1.2,1.4-2.2,2.5-2.9
			c1-0.7,2.2-1,3.6-1C468.2,33,469.2,33.3,470.1,33.9z M466,38.4c-0.6,0.7-1,1.7-1,2.9c0,1.2,0.3,2.2,1,2.9c0.6,0.7,1.5,1,2.6,1
			c1,0,1.9-0.4,2.5-1.1c0.7-0.7,1-1.7,1-2.9c0-1.2-0.3-2.2-1-2.9c-0.7-0.7-1.5-1.1-2.5-1.1C467.5,37.3,466.6,37.7,466,38.4z"/>
		<path class="st0" d="M490.9,34.6c1.2,1,2,2.4,2.3,4h-4.6c-0.1-0.7-0.4-1.2-0.9-1.5c-0.5-0.4-1.1-0.6-1.8-0.6c-0.6,0-1,0.1-1.3,0.4
			c-0.3,0.2-0.4,0.6-0.4,1c0,0.5,0.3,0.9,0.8,1.1c0.5,0.2,1.4,0.5,2.5,0.7c1.2,0.3,2.2,0.6,3,0.9c0.8,0.3,1.5,0.8,2,1.5
			c0.6,0.7,0.9,1.6,0.9,2.7c0,0.9-0.2,1.7-0.7,2.4c-0.5,0.7-1.2,1.3-2.2,1.7c-0.9,0.4-2.1,0.6-3.3,0.6c-2.2,0-3.9-0.5-5.2-1.4
			c-1.3-1-2.1-2.3-2.4-4.1h4.8c0.1,0.7,0.4,1.2,0.9,1.6c0.5,0.4,1.2,0.5,2,0.5c0.6,0,1-0.1,1.3-0.4c0.3-0.3,0.4-0.6,0.4-1
			c0-0.6-0.3-1-0.8-1.2c-0.5-0.2-1.4-0.5-2.6-0.8c-1.2-0.2-2.2-0.5-2.9-0.8c-0.8-0.3-1.4-0.8-2-1.4c-0.6-0.6-0.8-1.5-0.8-2.6
			c0-1.4,0.5-2.6,1.6-3.5c1.1-0.9,2.6-1.3,4.6-1.3C488,33,489.7,33.5,490.9,34.6z"/>
	</g>
</g>
</svg>
