<?xml version="1.0" encoding="UTF-8"?>
<svg width="319px" height="248px" viewBox="0 0 319 248" version="1.1" xmlns="http://www.w3.org/2000/svg" xmlns:xlink="http://www.w3.org/1999/xlink">
    <title>Group 5</title>
    <g id="Symbols" stroke="none" stroke-width="1" fill="none" fill-rule="evenodd">
        <g id="Group-5" transform="translate(0.000000, 0.000400)">
            <path d="M8.1725,77.483 C21.3175,32.701 62.6985,0 111.7405,0 C160.7805,0 202.1815,32.698 215.3315,77.483 L200.1415,77.483 C187.5035,40.815 152.6955,14.474 111.7405,14.474 C70.7835,14.474 35.9925,40.815 23.3675,77.483 L8.1725,77.483 Z" id="Fill-1" fill="#9CB700"></path>
            <path d="M205.893,87.8414 L219.337645,87.8414 L219.337645,136.6824 C219.337645,139.9434 219.359,138.6144 219.146,140.9654 C219.204,200.0444 171.306,247.9344 112.229,247.9344 C56.869,247.9344 11.336,205.8844 5.816,151.9854 L20.379,151.9854 C25.828,197.8734 64.872,233.4604 112.229,233.4604 C163.313,233.4604 204.729,192.0474 204.729,140.9654 C205.001,136.2624 205.109,138.2474 205.263,133.3244 L205.052,133.3244 C202.427,137.9454 196.123,141.9344 188.248,141.9344 C172.283,141.9344 166.191,129.1194 166.191,114.6274 C166.191,101.6014 172.911,86.5814 189.087,86.5814 C196.231,86.5814 201.797,88.9974 205.685,95.1944 L205.893,95.1944 L205.893,87.8414 Z M13.442,109.5834 C14.072,102.3364 18.063,96.8754 25.941,96.8754 C33.818,96.8754 36.968,102.7544 37.392,109.5834 L13.442,109.5834 Z M46.844,127.4394 C41.592,130.3814 35.71,132.9014 28.881,132.9014 C20.167,132.9014 14.072,127.9654 13.442,119.2454 L50.835,119.2454 C50.835,100.3414 45.161,86.5814 25.101,86.5814 C8.296,86.5814 0,99.5034 0,115.1534 C0,132.9014 10.399,143.1954 28.252,143.1954 C35.815,143.1954 41.699,141.7234 46.844,138.8874 L46.844,127.4394 Z M56.935,141.9344 L71.01,141.9344 L71.01,115.4654 C71.01,108.5314 73.217,97.5034 83.405,97.5034 C92.44,97.5034 92.541,106.4334 92.541,113.0494 L92.541,141.9344 L106.619,141.9344 L106.619,107.7984 C106.619,95.6154 101.05,86.5814 88.235,86.5814 C80.885,86.5814 74.896,88.9974 70.486,95.1944 L70.275,95.1944 L70.275,87.8414 L56.935,87.8414 L56.935,141.9344 Z M119.019,102.7544 C123.749,99.1874 129.735,96.8754 135.72,96.8754 C144.021,96.8754 147.906,99.8154 147.906,108.5314 L140.132,108.5314 C134.25,108.5314 127.317,109.0584 121.961,111.6844 C116.606,114.3124 112.721,119.0374 112.721,127.1244 C112.721,137.4184 122.068,143.1954 131.626,143.1954 C138.033,143.1954 145.07,139.8334 148.326,133.8464 L148.536,133.8464 C148.64,135.5284 148.64,139.0984 149.164,141.9344 L161.562,141.9344 C161.245,137.7344 161.037,133.9524 160.929,129.8564 C160.822,125.8634 160.718,121.7694 160.718,116.3054 L160.718,109.3754 C160.718,93.4074 153.892,86.5814 137.403,86.5814 C131.417,86.5814 124.063,88.1564 118.6,90.6774 L119.019,102.7544 Z M126.164,126.2834 C126.164,117.9854 135.511,116.9364 141.813,116.9364 L147.906,116.9364 C147.906,121.1364 147.275,125.0264 144.965,128.0714 C142.758,131.0084 139.395,132.9014 135.091,132.9014 C130.049,132.9014 126.164,130.9074 126.164,126.2834 L126.164,126.2834 Z M192.869,131.0084 C184.783,131.0084 180.894,121.9774 180.894,114.6274 C180.894,106.3264 183.939,97.5034 193.497,97.5034 C201.691,97.5034 205.263,105.0664 205.263,114.3124 C205.263,123.3414 201.691,131.0084 192.869,131.0084 L192.869,131.0084 Z M231.741,102.7544 C236.468,99.1874 242.457,96.8754 248.443,96.8754 C256.741,96.8754 260.627,99.8154 260.627,108.5314 L252.853,108.5314 C246.971,108.5314 240.038,109.0584 234.683,111.6844 C229.327,114.3124 225.44,119.0374 225.44,127.1244 C225.44,137.4184 234.79,143.1954 244.345,143.1954 C250.752,143.1954 257.789,139.8334 261.047,133.8464 L261.258,133.8464 C261.362,135.5284 261.362,139.0984 261.886,141.9344 L274.278,141.9344 C273.966,137.7344 273.755,133.9524 273.65,129.8564 C273.545,125.8634 273.441,121.7694 273.441,116.3054 L273.441,109.3754 C273.441,93.4074 266.616,86.5814 250.12,86.5814 C244.137,86.5814 236.781,88.1564 231.322,90.6774 L231.741,102.7544 Z M238.882,126.2834 C238.882,117.9854 248.231,116.9364 254.536,116.9364 L260.627,116.9364 C260.627,121.1364 259.995,125.0264 257.683,128.0714 C255.48,131.0084 252.116,132.9014 247.812,132.9014 C242.77,132.9014 238.882,130.9074 238.882,126.2834 L238.882,126.2834 Z M315.461,88.5774 C311.048,87.6304 306.742,86.5814 300.127,86.5814 C289.097,86.5814 278.911,91.7294 278.911,103.3884 C278.911,122.9254 303.384,115.6764 303.384,126.2834 C303.384,131.5354 297.712,132.9014 294.14,132.9014 C289.31,132.9014 284.687,131.5354 280.274,129.3294 L279.438,140.8834 C284.583,142.2484 290.042,143.1954 295.403,143.1954 C306.851,143.1954 318.089,138.1534 318.089,125.5494 C318.089,106.0124 293.614,111.4744 293.614,102.8614 C293.614,98.2404 298.132,96.8754 301.915,96.8754 C307.06,96.8754 310.213,97.7154 314.516,99.1874 L315.461,88.5774 Z" id="Fill-3" fill="#007AAE"></path>
        </g>
    </g>
</svg>