<?xml version="1.0" encoding="utf-8"?>
<!-- Generator: Adobe Illustrator 15.0.0, SVG Export Plug-In . SVG Version: 6.00 Build 0)  -->
<!DOCTYPE svg PUBLIC "-//W3C//DTD SVG 1.1//EN" "http://www.w3.org/Graphics/SVG/1.1/DTD/svg11.dtd">
<svg version="1.1" id="Capa_1" xmlns="http://www.w3.org/2000/svg" xmlns:xlink="http://www.w3.org/1999/xlink" x="0px" y="0px"
	 width="1200px" height="276px" viewBox="0 0 1200 276" enable-background="new 0 0 1200 276" xml:space="preserve">
<g>
	<path fill="#A90A2E" d="M377.78,28.914c48.103,0,87.098,38.996,87.098,87.101c0,48.104-38.995,87.101-87.098,87.101
		c-48.104,0-87.098-38.996-87.098-87.101C290.682,67.909,329.676,28.914,377.78,28.914 M377.78,31.439
		c-46.709,0-84.573,37.865-84.573,84.576c0,46.71,37.864,84.575,84.573,84.575c46.708,0,84.572-37.865,84.572-84.575
		C462.352,69.304,424.488,31.439,377.78,31.439 M377.78,45.092c39.168,0,70.919,31.752,70.919,70.923
		c0,39.169-31.751,70.923-70.919,70.923c-39.169,0-70.92-31.754-70.92-70.923C306.859,76.844,338.611,45.092,377.78,45.092
		 M418.431,111.592l27.444-2.009c-3.204-34.363-31.827-61.344-66.879-61.956l-0.01,27.515
		C399.526,75.737,416.269,91.481,418.431,111.592 M408.252,112.337l7.659-0.561c-2.066-18.802-17.718-33.516-36.926-34.108
		l-0.003,7.677C394.142,85.93,406.482,97.51,408.252,112.337 M378.972,114.481l26.758-1.959
		c-1.672-13.518-12.921-24.068-26.749-24.648L378.972,114.481z M406.017,145.588l18.33,20.523
		c13.428-12.488,21.828-30.312,21.828-50.097c0-1.313-0.037-2.619-0.11-3.914l-27.44,2.008c0.029,0.631,0.043,1.267,0.043,1.905
		C418.667,127.646,413.812,138.143,406.017,145.588 M399.218,137.977l5.115,5.726c7.279-6.981,11.81-16.806,11.81-27.688
		c0-0.577-0.013-1.151-0.038-1.721l-7.656,0.56l0.022,1.161C408.47,124.623,404.926,132.404,399.218,137.977 M380.399,116.907
		l17.134,19.185c5.192-5.109,8.411-12.217,8.411-20.077l-0.017-0.976L380.399,116.907z M365.97,141.594l9.816-24.543l-26.154,0
		C350.027,127.947,356.609,137.264,365.97,141.594 M362.178,151.074l2.854-7.133c-10.291-4.705-17.528-14.932-17.925-26.89l-7.676,0
		C339.833,132.24,349.063,145.229,362.178,151.074 M351.017,178.977l10.222-25.557c-14.044-6.219-23.93-20.117-24.335-36.368
		l-27.512,0C309.807,144.885,326.843,168.689,351.017,178.977 M363.579,154.371l-10.22,25.551c7.584,2.9,15.816,4.49,24.421,4.49
		c17.081,0,32.7-6.262,44.686-16.615l-18.329-20.521c-7.117,6.008-16.315,9.629-26.357,9.629
		C372.787,156.904,368.002,156.008,363.579,154.371 M367.369,144.895l-2.852,7.131c4.133,1.521,8.601,2.354,13.263,2.354
		c9.397,0,18.004-3.379,24.675-8.988l-5.114-5.725c-5.311,4.396-12.127,7.039-19.561,7.039
		C374.125,146.705,370.62,146.066,367.369,144.895 M378.084,118.105l-9.777,24.443c2.96,1.057,6.148,1.631,9.472,1.631
		c6.788,0,13.014-2.4,17.877-6.399L378.084,118.105z M351.163,84.973c-1.668-2.573-3.442-5.179-4.964-7.131
		c-3.363-4.335-9.634-11.402-12.256-14.331c-14.656,12.251-24.104,30.524-24.542,51.017h27.518
		C337.34,102.71,342.776,92.171,351.163,84.973 M356.625,93.778c-0.642-1.078-1.862-3.107-3.331-5.456l-0.755-1.2
		c-7.695,6.728-12.679,16.481-13.095,27.405h7.68C347.513,106.372,351.085,99.05,356.625,93.778 M373.416,114.527l-0.957-0.646
		c-2.357-1.626-5.295-3.893-7.476-6.429c-2.875-3.162-5.106-7.446-7.11-11.364c-4.776,4.771-7.846,11.248-8.22,18.439H373.416z
		 M359.812,94.323c1.302,2.471,4.839,9.011,7.063,11.457c2.857,3.323,7.289,6.278,9.573,7.687l0.009-25.588
		C370.143,88.171,364.371,90.542,359.812,94.323 M354.558,85.475c1.377,2.187,2.705,4.404,4.003,6.609
		c4.939-3.972,11.135-6.447,17.896-6.733l0.003-7.678C368.241,77.95,360.678,80.813,354.558,85.475 M335.912,61.925
		c2.695,3.012,8.922,10.038,12.28,14.366c1.758,2.255,3.415,4.625,4.999,7.05c6.516-4.912,14.549-7.92,23.271-8.196l0.01-27.516
		C361.204,47.916,347.161,53.204,335.912,61.925"/>
	<path fill="#A90A2E" d="M312.904,161.58c-0.29-0.482-0.483-0.869-0.483-1.352s0.097-0.773,0.386-0.965
		c0.29-0.193,0.58-0.193,1.062-0.098c0.387,0.193,0.772,0.58,1.062,0.965c0.29,0.484,0.483,0.869,0.483,1.354
		c0.097,0.482-0.097,0.771-0.387,0.965c-0.193,0.193-0.579,0.193-0.965,0.098C313.58,162.354,313.194,162.063,312.904,161.58"/>
	<path fill="#A90A2E" d="M302.089,148.545l-1.835-5.506l0.483-0.193l0.29,0.967c0.097,0.387,0.29,0.676,0.386,0.771
		c0.097,0.193,0.193,0.193,0.29,0.193c0.097,0,0.193-0.096,0.29-0.289l4.538-5.408l-6.373-1.352h-0.386
		c-0.193,0.097-0.29,0.29-0.386,0.483c0,0.289,0,0.483,0.097,0.868l0.29,0.869l-0.386,0.193l-1.641-4.925l0.482-0.096l0.097,0.386
		c0.096,0.29,0.29,0.579,0.579,0.772c0.29,0.29,0.58,0.386,1.063,0.58l8.305,1.835l0.193,0.579l-5.891,7.146
		c-0.193,0.193-0.29,0.482-0.29,0.676c-0.097,0.289,0,0.58,0.097,0.869l0.193,0.482L302.089,148.545z M296.778,130.776l-0.29-3.283
		l6.083-8.98l-4.924,0.483c-0.483,0-0.869,0.193-1.063,0.579c-0.193,0.386-0.193,0.87-0.193,1.545h-0.387l-0.482-4.829h0.482
		c0,0.483,0.097,0.869,0.193,1.063c0.097,0.193,0.29,0.483,0.483,0.579c0.29,0.193,0.58,0.29,0.772,0.193l6.953-0.58v0.869
		l-6.277,9.271l5.215-0.483c0.482,0,0.772-0.193,0.965-0.58c0.193-0.483,0.29-1.062,0.29-1.834l0.386-0.097l0.483,5.311
		l-0.483,0.097c0-0.676-0.193-1.255-0.483-1.545c-0.29-0.387-0.676-0.58-1.062-0.58l-5.793,0.58l-0.097,0.193
		c-0.193,0.29-0.29,0.483-0.386,0.676v0.676l0.097,0.676H296.778z M295.909,112.042l0.483-6.373h0.482l-0.096,1.062
		c-0.097,0.58,0,0.869,0,0.966c0.096,0.193,0.193,0.193,0.483,0.29l6.566,0.482c0.29,0.097,0.386,0,0.483-0.097
		s0.193-0.386,0.193-0.772l0.097-1.255l0.483,0.097l-0.58,6.373l-0.386-0.096l0.097-1.159c0-0.483,0-0.676-0.097-0.869
		c0-0.097-0.193-0.193-0.482-0.193l-6.566-0.579c-0.193,0-0.386,0-0.483,0.096c-0.097,0.193-0.193,0.483-0.193,0.966l-0.097,1.062
		H295.909z M296.778,101.806l1.545-5.697l0.386,0.193l-0.29,0.965c-0.096,0.386-0.096,0.676-0.096,0.869
		c0,0.097,0.096,0.193,0.193,0.193c0.097,0.097,0.193,0,0.386,0l6.663-2.125l-4.539-4.538c-0.097-0.097-0.193-0.193-0.29-0.193
		c-0.29-0.097-0.483,0-0.58,0.193c-0.193,0.097-0.29,0.386-0.386,0.772l-0.29,0.869l-0.386-0.097l1.255-4.924l0.483,0.096
		l-0.097,0.387c-0.097,0.289-0.097,0.58,0,0.965c0.097,0.386,0.29,0.676,0.676,1.063l5.89,5.987l-0.193,0.676l-8.787,2.8
		c-0.29,0.097-0.483,0.193-0.676,0.386c-0.097,0.193-0.29,0.483-0.386,0.869l-0.097,0.386L296.778,101.806z"/>
	<path fill="#A90A2E" d="M328.837,51.206l0.193-1.062l0.483-0.483l2.125,2.414l-0.483,0.387c-0.965-0.483-1.834-0.676-2.704-0.483
		c-0.869,0.097-1.738,0.483-2.511,1.063c-0.579,0.579-1.062,1.062-1.255,1.642c-0.193,0.58-0.193,1.062,0.097,1.352
		c0.193,0.289,0.386,0.386,0.676,0.386c0.29,0.097,0.676,0,1.062-0.097c0.386-0.193,1.062-0.579,2.028-1.159
		c1.255-0.772,2.317-1.255,2.896-1.545c0.58-0.193,1.159-0.29,1.642-0.193c0.386,0,0.773,0.193,1.063,0.579
		c0.482,0.58,0.579,1.352,0.193,2.317c-0.29,0.966-0.965,1.835-2.028,2.607c-1.159,0.966-2.221,1.545-3.476,1.738l-0.29,1.255
		l-0.483,0.483L325.94,59.8l0.483-0.483c0.772,0.58,1.738,0.772,2.8,0.58c0.966-0.096,1.931-0.58,2.897-1.255
		c0.676-0.579,1.159-1.255,1.448-1.834c0.193-0.676,0.193-1.159-0.097-1.545c-0.193-0.193-0.482-0.386-0.772-0.386
		c-0.29,0-0.676,0.096-1.159,0.289c-0.386,0.193-1.255,0.58-2.511,1.352c-1.352,0.772-2.317,1.255-2.896,1.352
		c-0.869,0.193-1.545,0-1.931-0.58c-0.483-0.579-0.58-1.352-0.29-2.125c0.29-0.965,0.869-1.738,1.835-2.511
		c0.482-0.386,0.965-0.676,1.448-0.869C327.678,51.496,328.258,51.399,328.837,51.206 M316.091,68.395l1.159-1.255
		c0.676-0.869,1.063-1.545,1.255-2.221s0.097-1.159-0.483-1.642c-0.386-0.29-0.676-0.387-1.062-0.387c-0.29,0-0.58,0.097-0.869,0.29
		c-0.483,0.29-0.966,0.869-1.642,1.738c-0.482,0.58-0.772,0.966-0.772,1.159c-0.097,0.193-0.097,0.29,0.097,0.387L316.091,68.395z
		 M316.091,62.407c0.483-0.483,0.869-0.772,1.352-0.869c0.773-0.386,1.449-0.386,1.932,0c0.29,0.29,0.483,0.58,0.483,1.063
		c0,0.386-0.097,0.869-0.29,1.448c-0.193,0.58-0.676,1.352-1.352,2.318c0.676-0.58,1.159-0.966,1.448-1.159
		c0.386-0.096,0.676-0.193,0.965-0.193c0.29-0.097,0.869,0.097,1.545,0.29c0.579,0.193,0.965,0.29,1.255,0.193
		c0.193,0,0.387-0.097,0.483-0.29c0.097-0.096,0.193-0.29,0.097-0.579c0-0.193-0.193-0.483-0.483-0.773l0.386-0.579
		c0.966,0.965,0.966,2.028,0,3.09c-0.29,0.386-0.579,0.676-0.869,0.869c-0.29,0.096-0.676,0.193-0.965,0.193
		c-0.29-0.097-0.772-0.29-1.545-0.773c-0.483-0.192-0.869-0.386-1.159-0.289c-0.29,0-0.676,0.097-1.062,0.386
		c-0.387,0.193-0.676,0.58-1.063,1.063l-0.772,0.869l2.704,2.125c0.483,0,0.676-0.097,0.869-0.387l0.772-1.062l0.386,0.29
		l-4.056,5.021l-0.386-0.29l0.869-1.062c0.193-0.193,0.29-0.386,0.386-0.58l-1.931-1.738l-3.573-2.994
		c-0.097-0.096-0.29-0.096-0.386,0c-0.193,0.097-0.386,0.193-0.58,0.387l-0.772,1.062l-0.386-0.29l4.538-5.504
		C315.318,63.18,315.705,62.697,316.091,62.407 M302.282,83.555l5.214-9.656l2.704,1.158l-0.29,0.483
		c-0.966-0.193-1.738-0.097-2.318,0.193c-0.579,0.29-1.063,0.869-1.448,1.545l-1.255,2.414c-0.097,0.193-0.193,0.386-0.193,0.58
		l2.994,1.738l0.58-1.063c0.29-0.579,0.386-1.062,0.29-1.545c0-0.483-0.29-0.965-0.773-1.255l0.29-0.579l3.573,1.931l-0.386,0.579
		c-0.58-0.29-1.062-0.29-1.545-0.096c-0.386,0.193-0.772,0.579-1.159,1.255l-0.483,0.965l2.994,1.642c0.193,0,0.29,0,0.386-0.096
		c0.096-0.097,0.29-0.29,0.386-0.58l1.063-1.835c1.063-2.125,0.869-3.669-0.58-4.925l0.29-0.579l2.8,1.738l-5.408,10.139
		l-0.386-0.193l0.386-0.869c0.193-0.386,0.29-0.579,0.29-0.772c0-0.193-0.096-0.289-0.193-0.386l-6.083-3.187
		c-0.097-0.097-0.29-0.097-0.386,0c-0.097,0.097-0.29,0.29-0.386,0.483l-0.58,1.062L302.282,83.555z"/>
	<path fill="#A90A2E" d="M416.129,43.384l2.8,1.834l3.283,10.333l2.704-4.152c0.29-0.483,0.386-0.869,0.193-1.256
		c-0.193-0.386-0.483-0.772-1.063-1.062l0.193-0.386l4.152,2.607l-0.29,0.386c-0.386-0.29-0.772-0.386-0.966-0.483
		c-0.29-0.097-0.579-0.097-0.869,0c-0.193,0.097-0.483,0.29-0.58,0.483l-3.766,5.794L421.15,57l-3.38-10.622l-2.8,4.345
		c-0.289,0.386-0.386,0.773-0.192,1.255c0.29,0.387,0.676,0.772,1.352,1.255l-0.29,0.386l-4.442-2.897l0.29-0.386
		c0.58,0.386,1.062,0.483,1.545,0.483s0.772-0.097,0.966-0.483l3.187-4.925v-0.193c-0.193-0.289-0.29-0.579-0.386-0.676
		c-0.097-0.096-0.29-0.29-0.58-0.386l-0.482-0.386L416.129,43.384z"/>
	<path fill="#A90A2E" d="M431.483,54.006l4.055,4.152l-0.29,0.386l-0.772-0.772c-0.29-0.29-0.483-0.482-0.579-0.579
		c-0.193,0-0.29,0-0.386,0.097c-0.097,0-0.097,0.096-0.097,0.289l-0.097,0.193l-1.642,6.663l6.277-1.545
		c0.096,0,0.193-0.097,0.386-0.193c0.096-0.193,0.193-0.386,0.096-0.579c0-0.193-0.193-0.483-0.482-0.773l-0.58-0.676l0.29-0.29
		l3.572,3.67l-0.29,0.386l-0.29-0.386c-0.29-0.193-0.58-0.386-0.869-0.483c-0.386,0-0.772,0-1.255,0.097l-8.208,1.931l-0.482-0.482
		l2.221-8.981c0-0.29,0-0.483-0.097-0.772c-0.097-0.193-0.194-0.483-0.483-0.772l-0.29-0.29L431.483,54.006z"/>
	<path fill="#A90A2E" d="M403.383,38.749c-0.676,0-1.255,0.097-1.738,0.29c-0.966,0.29-1.642,1.159-2.125,2.511
		c-0.483,1.449-0.483,2.607,0.097,3.477c0.483,0.772,1.352,1.352,2.414,1.738c0.483,0.193,0.869,0.29,1.352,0.29
		c0.193,0.097,0.483,0.097,0.773,0c0.676,0,1.255-0.29,1.738-0.676c0.58-0.483,0.966-1.159,1.255-2.028
		c0.386-0.966,0.483-1.835,0.386-2.511c-0.193-0.676-0.482-1.159-0.965-1.642c-0.483-0.482-1.159-0.869-1.835-1.159
		C404.252,38.942,403.77,38.845,403.383,38.749 M403.383,47.633c-0.579-0.097-1.062-0.29-1.545-0.386
		c-1.062-0.386-2.027-0.869-2.8-1.642c-0.772-0.675-1.352-1.448-1.738-2.221c-0.29-0.869-0.29-1.738,0-2.607
		c0.29-0.773,0.772-1.449,1.545-1.835c0.772-0.483,1.642-0.773,2.704-0.773c0.676,0,1.255,0,1.834,0.097
		c0.387,0.097,0.869,0.193,1.352,0.386c1.062,0.29,2.028,0.869,2.897,1.545c0.869,0.772,1.448,1.449,1.738,2.318
		c0.386,0.869,0.386,1.738,0.096,2.511c-0.29,0.772-0.772,1.448-1.642,1.931c-0.772,0.483-1.642,0.676-2.8,0.773
		C404.542,47.729,403.962,47.729,403.383,47.633"/>
	<path fill="#A90A2E" d="M453.016,83.169l3.573,10.429l-2.704,1.255l-0.193-0.58c0.772-0.579,1.255-1.158,1.448-1.834
		c0.097-0.58,0.097-1.352-0.193-2.125l-0.869-2.607c-0.097-0.193-0.193-0.386-0.29-0.386c-0.097-0.097-0.193-0.097-0.387-0.097
		l-2.897,1.063l0.387,1.063c0.193,0.676,0.483,1.062,0.869,1.352c0.387,0.29,0.87,0.386,1.449,0.193l0.29,0.58l-3.862,1.352
		l-0.193-0.676c0.58-0.193,0.966-0.58,1.159-1.063c0.097-0.483,0.097-1.062-0.193-1.642l-0.29-1.062l-3.284,1.158
		c-0.097,0-0.193,0.097-0.193,0.29c0,0.097,0,0.29,0.096,0.579l0.676,2.125c0.772,2.124,2.125,3.09,3.959,2.897l0.29,0.579
		l-3.187,0.869l-3.669-10.815l0.386-0.193l0.29,0.966c0.096,0.29,0.29,0.58,0.386,0.676c0.097,0.096,0.29,0.096,0.386,0.096
		l6.47-2.221c0.193-0.097,0.29-0.193,0.29-0.29c0-0.193,0-0.387-0.096-0.676l-0.386-1.062L453.016,83.169z"/>
	<path fill="#A90A2E" d="M383.395,35.079l0.869-0.772l0.676,0.097v3.09h-0.676c-0.386-0.965-0.869-1.738-1.641-2.125
		c-0.773-0.483-1.642-0.772-2.607-0.772c-0.772-0.097-1.545,0.097-2.028,0.387c-0.579,0.289-0.772,0.675-0.869,1.062
		c0,0.29,0.097,0.579,0.29,0.772c0.193,0.193,0.482,0.386,0.869,0.483c0.386,0.193,1.159,0.386,2.221,0.579
		c1.545,0.193,2.704,0.483,3.283,0.676c0.579,0.29,1.062,0.579,1.352,0.869c0.29,0.387,0.483,0.773,0.386,1.159
		c0,0.772-0.386,1.448-1.255,1.931s-2.028,0.676-3.283,0.676c-1.449-0.096-2.704-0.386-3.766-0.966l-1.063,0.773l-0.676-0.097
		l0.097-3.38l0.676,0.097c0.193,0.869,0.772,1.642,1.738,2.221c0.869,0.579,1.835,0.869,2.994,0.965
		c0.965,0,1.738-0.193,2.317-0.482c0.58-0.29,0.869-0.676,0.965-1.255c0-0.193-0.096-0.483-0.386-0.676
		c-0.193-0.193-0.483-0.386-0.966-0.579c-0.483-0.193-1.448-0.387-2.8-0.58c-1.545-0.29-2.607-0.58-3.09-0.966
		c-0.772-0.386-1.159-0.965-1.159-1.738c0-0.676,0.483-1.353,1.255-1.739c0.772-0.482,1.835-0.676,2.994-0.676
		c0.579,0,1.159,0.097,1.641,0.29C382.333,34.5,382.815,34.789,383.395,35.079 M364.565,40.776l2.414-0.386l-2.414-2.704
		l-0.58-0.675l-1.834,4.152L364.565,40.776z M364.565,35.175l6.277,7.049c0.193,0.29,0.676,0.387,1.255,0.29h0.386l0.097,0.386
		l-5.504,0.869v-0.386l0.386-0.096c0.579-0.097,0.965-0.193,1.255-0.29c0.097-0.097,0.193-0.193,0.193-0.29l-1.545-1.834l-2.8,0.386
		l-2.607,0.483l-0.483,1.062c-0.097,0.386-0.193,0.58-0.193,0.772c0.097,0.193,0.193,0.29,0.483,0.387
		c0.386,0.096,0.772,0.096,1.352,0l0.386-0.097l0.097,0.483l-4.925,0.772l-0.097-0.386c0.483-0.097,0.966-0.29,1.255-0.483
		c0.193-0.193,0.483-0.483,0.676-0.965l3.476-8.016L364.565,35.175z M333.955,46.957l5.504-3.38l0.193,0.387l-0.966,0.579
		c-0.386,0.29-0.579,0.483-0.676,0.58c-0.097,0.096-0.097,0.29,0.097,0.482l3.379,5.698c0.097,0.193,0.29,0.29,0.387,0.29
		c0.193,0,0.386-0.097,0.772-0.29l1.062-0.58l0.193,0.29l-5.504,3.38l-0.193-0.386l1.062-0.676c0.29-0.193,0.58-0.386,0.58-0.483
		c0.096-0.193,0.096-0.29-0.097-0.579l-3.38-5.601c-0.097-0.193-0.193-0.29-0.386-0.29c-0.193,0-0.482,0.097-0.869,0.387
		l-0.965,0.483L333.955,46.957z M343.708,41.452l10.525-4.055l1.448,2.993l-0.579,0.29c-1.159-1.739-2.511-2.222-4.152-1.545
		c-0.386,0.097-0.579,0.29-0.676,0.386s-0.097,0.29-0.097,0.386l2.511,6.47c0.097,0.193,0.193,0.29,0.29,0.29
		c0.193,0,0.386-0.097,0.676-0.193l1.256-0.483l0.193,0.386l-6.083,2.318l-0.096-0.386l1.448-0.579
		c0.193-0.097,0.386-0.193,0.483-0.29c0-0.097,0.096-0.193,0-0.29l-2.511-6.566c0-0.097-0.097-0.193-0.29-0.193
		c-0.193-0.097-0.386,0-0.676,0.097c-0.869,0.386-1.448,0.869-1.835,1.545c-0.386,0.58-0.386,1.449-0.29,2.415l-0.676,0.193
		L343.708,41.452z"/>
	<path fill="#A90A2E" d="M458.231,99.392l0.386,3.283l-5.697,9.174l4.925-0.58c0.483-0.096,0.772-0.29,0.966-0.676
		c0.193-0.386,0.29-0.869,0.193-1.545h0.386l0.676,4.828h-0.483c-0.097-0.483-0.193-0.869-0.29-1.062
		c-0.097-0.193-0.29-0.387-0.483-0.58c-0.29-0.193-0.579-0.193-0.773-0.193l-6.855,0.87l-0.097-0.87l5.987-9.463l-5.214,0.58
		c-0.482,0.097-0.772,0.29-0.965,0.676c-0.193,0.483-0.29,1.063-0.193,1.835l-0.386,0.096l-0.676-5.311h0.387
		c0.096,0.676,0.386,1.158,0.676,1.448c0.29,0.386,0.58,0.579,0.966,0.483l5.89-0.676l0.097-0.193c0.097-0.29,0.193-0.58,0.29-0.676
		c0-0.193,0-0.482-0.097-0.772v-0.579L458.231,99.392z"/>
	<path fill="#A90A2E" d="M443.746,79.692l0.193-0.193c0.483-0.29,0.773-0.772,0.773-1.448c0-0.58-0.29-1.353-0.773-2.125
		l-0.193-0.386l-1.352-2.124l-0.386,0.29l-2.414,1.545c-0.193,0.096-0.193,0.193-0.193,0.386c0,0.097,0.097,0.386,0.29,0.676
		l0.869,1.448c0.579,0.772,1.063,1.352,1.449,1.738c0.096,0,0.193,0.096,0.289,0.096C442.78,79.886,443.264,79.886,443.746,79.692
		 M445.291,71.678l-1.545,0.966l-0.966,0.579l0.966,1.545l0.386,0.676c0.386,0.579,0.772,0.966,1.159,1.255
		c0.097,0.097,0.193,0.097,0.29,0.193c0.483,0.193,1.063,0.193,1.642-0.193c0.29-0.193,0.579-0.482,0.579-0.772
		c0.097-0.386,0.097-0.772-0.097-1.159c-0.096-0.386-0.482-1.062-0.966-2.028c-0.482-0.58-0.772-0.966-0.869-1.159
		c-0.193-0.096-0.29-0.096-0.483,0L445.291,71.678z M445.291,77.858c0.386,0.772,0.483,1.448,0.483,2.028
		c0.097,0.676-0.097,1.159-0.483,1.448c-0.482,0.387-0.965,0.387-1.448,0.29c-0.579-0.193-1.063-0.58-1.642-1.159
		c-0.097,0-0.097-0.096-0.193-0.096c-0.58-0.58-1.159-1.352-1.642-2.221l-3.766-5.987l0.386-0.193l0.58,0.966
		c0.193,0.29,0.386,0.483,0.482,0.579c0.193,0.097,0.29,0.097,0.386,0.097l3.573-2.317l1.738-1.063l0.58-0.29
		c0.096-0.097,0.193-0.29,0.193-0.386c0-0.193-0.097-0.482-0.29-0.676l-0.483-0.772l-0.193-0.29l0.193-0.096l0.193-0.097
		l1.352,2.124l2.511,3.959c0.772,1.255,1.159,2.221,1.255,3.09c0,0.869-0.193,1.449-0.676,1.738c-0.387,0.29-0.869,0.29-1.449,0
		c-0.483-0.193-1.062-0.579-1.642-1.159c-0.097-0.097-0.193-0.29-0.386-0.386C445.098,77.278,445.194,77.568,445.291,77.858"/>
	<path fill="#A90A2E" d="M458.424,126.624l0.676,0.869l-0.097,0.772l-3.187-0.29l0.097-0.58c0.966-0.29,1.738-0.869,2.317-1.544
		c0.483-0.676,0.772-1.545,0.869-2.607c0.097-0.773,0-1.449-0.29-2.028c-0.29-0.58-0.676-0.87-1.063-0.87
		c-0.29,0-0.579,0.097-0.772,0.193c-0.193,0.193-0.386,0.483-0.58,0.869s-0.386,1.159-0.58,2.221
		c-0.386,1.545-0.676,2.607-0.965,3.187c-0.29,0.579-0.58,1.062-0.966,1.352c-0.29,0.29-0.676,0.386-1.159,0.29
		c-0.772,0-1.352-0.483-1.834-1.352c-0.386-0.966-0.58-2.028-0.483-3.38c0.097-1.449,0.579-2.607,1.255-3.669l-0.772-1.062
		l0.096-0.676l3.283,0.289v0.676c-0.966,0.193-1.738,0.676-2.317,1.545c-0.676,0.869-0.966,1.835-1.159,2.994
		c0,0.966,0.097,1.738,0.386,2.317c0.29,0.58,0.676,0.966,1.159,0.966c0.29,0.097,0.483,0,0.772-0.193
		c0.193-0.29,0.386-0.579,0.58-1.062c0.193-0.483,0.483-1.352,0.772-2.705c0.386-1.544,0.676-2.51,1.062-3.09
		c0.386-0.772,1.063-1.062,1.738-1.062c0.772,0.097,1.352,0.579,1.834,1.352c0.386,0.87,0.483,1.835,0.386,3.09
		c0,0.58-0.097,1.063-0.29,1.642C459.003,125.562,458.713,126.044,458.424,126.624"/>
	<path fill="#A90A2E" d="M457.844,133.77l-1.642,6.18l-0.386-0.193l0.29-1.062c0.096-0.386,0.096-0.772,0.096-0.869
		c-0.096-0.193-0.193-0.29-0.386-0.29l-6.373-1.738c-0.29-0.097-0.483-0.097-0.579,0c-0.097,0.192-0.193,0.386-0.29,0.772
		l-0.29,1.255l-0.482-0.193l1.642-6.18l0.483,0.096l-0.386,1.255c-0.097,0.386-0.097,0.676-0.097,0.772
		c0.097,0.193,0.193,0.29,0.483,0.29l6.373,1.738c0.193,0.097,0.386,0.097,0.483,0c0.097-0.193,0.29-0.483,0.386-0.966l0.29-1.063
		L457.844,133.77z"/>
	<path fill="#A90A2E" d="M450.988,151.344l0.387,1.063l-0.29,0.676l-2.994-1.254l0.29-0.58c1.062,0.096,1.931-0.193,2.704-0.676
		c0.676-0.58,1.255-1.256,1.642-2.125c0.29-0.771,0.483-1.449,0.386-2.027c-0.097-0.676-0.29-1.063-0.676-1.256
		c-0.29-0.096-0.58-0.096-0.869,0c-0.193,0.098-0.483,0.289-0.773,0.58c-0.289,0.385-0.772,0.965-1.352,1.932
		c-0.772,1.352-1.449,2.221-1.834,2.703c-0.483,0.482-0.966,0.771-1.352,0.965c-0.386,0.098-0.869,0.098-1.255-0.096
		c-0.676-0.291-1.159-0.967-1.255-1.932s0.097-2.027,0.676-3.283c0.58-1.256,1.352-2.318,2.317-3.09l-0.386-1.256l0.29-0.58
		l3.09,1.354l-0.29,0.578c-0.966-0.096-1.834,0.098-2.704,0.773c-0.869,0.58-1.545,1.449-2.027,2.414
		c-0.386,0.869-0.483,1.641-0.386,2.318c0,0.676,0.29,1.158,0.772,1.352c0.193,0.096,0.482,0.096,0.772,0
		c0.29-0.193,0.579-0.387,0.869-0.773c0.387-0.385,0.87-1.158,1.642-2.316c0.869-1.354,1.545-2.223,2.028-2.607
		c0.676-0.58,1.352-0.676,2.028-0.387c0.676,0.289,1.062,0.965,1.159,1.834c0.193,0.869,0,1.932-0.483,2.994
		c-0.29,0.58-0.579,1.063-0.869,1.449C451.954,150.572,451.471,150.957,450.988,151.344"/>
	<path fill="#A90A2E" d="M438.725,166.602c-0.386,0.387-0.772,0.676-1.255,0.869c-0.386,0.098-0.772,0.098-0.966-0.096
		c-0.29-0.291-0.386-0.58-0.386-1.063c0.096-0.387,0.289-0.869,0.675-1.256c0.387-0.482,0.772-0.771,1.159-0.869
		c0.482-0.096,0.772-0.096,1.062,0.098c0.29,0.191,0.387,0.578,0.29,1.061C439.208,165.732,439.014,166.215,438.725,166.602"/>
	<path fill="#A90A2E" d="M328.354,181.377l-6.18-5.215l1.738-2.318l0.29,0.291c-0.386,0.867-0.58,1.545-0.483,2.027
		c0,0.578,0.29,1.063,0.772,1.449l1.545,1.254c0.097,0.098,0.29,0.193,0.386,0.193s0.193-0.096,0.29-0.193l1.932-2.316l-0.676-0.58
		c-0.386-0.289-0.772-0.387-1.159-0.387s-0.772,0.193-1.159,0.676l-0.386-0.289l2.51-2.994l0.387,0.291
		c-0.387,0.482-0.58,0.965-0.483,1.352c0,0.385,0.193,0.771,0.58,1.063l0.676,0.578l2.124-2.607
		c0.097-0.096,0.097-0.191,0.097-0.289c-0.097-0.096-0.193-0.289-0.29-0.387l-1.255-1.063c-1.255-1.061-2.607-0.965-3.959,0.193
		l-0.386-0.289l2.125-2.318l6.373,5.408l-0.29,0.291l-0.482-0.387c-0.193-0.193-0.386-0.291-0.483-0.291
		c-0.193,0-0.29,0-0.386,0.098l-4.346,5.117c-0.096,0.193-0.096,0.289-0.096,0.387c0.096,0.096,0.193,0.289,0.29,0.387l0.676,0.482
		L328.354,181.377z M407.632,191.709c0.386-0.096,0.772-0.193,1.255-0.387c0.482-0.193,0.772-0.387,0.869-0.482
		c0.096-0.193,0.096-0.289,0-0.482l-1.255-3.09l-0.869,0.387l-0.386,0.191c-0.869,0.289-1.352,0.676-1.545,1.16
		c-0.29,0.385-0.29,0.965,0,1.545c0.193,0.482,0.386,0.771,0.676,0.965s0.58,0.289,0.966,0.289
		C407.438,191.709,407.535,191.709,407.632,191.709 M412.943,189.971l-4.635,1.932c-0.193,0.096-0.386,0.193-0.676,0.289
		c-0.676,0.193-1.352,0.291-1.931,0.193c-0.676-0.193-1.159-0.58-1.449-1.256c-0.29-0.578-0.193-1.158,0.097-1.738
		c0.483-0.771,1.255-1.352,2.317-1.736l0.966-0.484l0.676-0.289l-0.676-1.545l-0.483-1.063c0-0.193-0.097-0.289-0.193-0.289
		c-0.193,0-0.387,0-0.58,0.096l-1.062,0.387l-0.193-0.387l2.511-1.063l2.028-0.771l0.193,0.387l-0.965,0.385
		c-0.193,0.098-0.29,0.098-0.386,0.193s-0.097,0.289,0,0.387l2.607,6.18c0.096,0.193,0.193,0.193,0.29,0.291
		c0.193,0,0.386-0.098,0.676-0.193l0.676-0.291L412.943,189.971z M417.481,183.598l1.738,1.158l-0.386-4.152l-1.352,0.869
		l-1.738,0.967L417.481,183.598z M419.896,186.301l-0.386,0.193l-2.028-1.352l-5.118-3.379c-0.29-0.195-0.579-0.195-0.965,0.096
		l-0.29,0.096l-0.193-0.289l3.476-2.125l0.193,0.387l-0.29,0.193c-0.29,0.193-0.58,0.387-0.676,0.482
		c-0.097,0.098-0.097,0.193,0,0.291l1.738,1.254l2.125-1.254l1.352-0.773l-0.097-1.158c-0.097-0.291-0.097-0.484-0.193-0.58
		c-0.097-0.193-0.29-0.289-0.579-0.289c-0.097,0-0.29,0-0.483,0.096c-0.097,0.098-0.193,0.098-0.386,0.193l-0.29,0.193l-0.193-0.387
		l0.869-0.482l2.317-1.352l0.193,0.289c-0.386,0.193-0.58,0.482-0.676,0.676c-0.193,0.291-0.193,0.58-0.193,1.063L419.896,186.301z
		 M358.578,192.674l1.738-2.027l-1.738-0.482l-1.738-0.387l0.772,4.057L358.578,192.674z M358.578,189.777l2.125,0.482l0.676-0.869
		c0.193-0.191,0.29-0.385,0.386-0.578c0-0.193,0-0.291-0.193-0.482c-0.193-0.195-0.483-0.387-0.869-0.484l-0.29-0.096l0.097-0.387
		l3.572,0.967l-0.097,0.385c-0.386-0.096-0.676-0.096-0.965,0c-0.29,0.098-0.58,0.291-0.869,0.58l-3.573,4.152l-1.545,1.932
		l-0.483-0.098l-1.545-8.496c0-0.291-0.29-0.484-0.676-0.678h-0.29l0.097-0.482l3.863,1.063l-0.097,0.387l-0.29-0.098
		c-0.386-0.096-0.676-0.096-0.869-0.096c-0.193,0-0.29,0.096-0.29,0.193l0.386,2.221L358.578,189.777z M337.721,186.012l3.38-5.408
		v-0.387c-0.097-0.096-0.193-0.289-0.483-0.385l-0.676-0.482c-0.676-0.387-1.352-0.58-2.028-0.678
		c-0.579,0.098-0.869,0.193-1.255,0.387c-0.482,0.291-0.965,0.869-1.448,1.643c-0.772,1.254-1.062,2.221-0.965,3.09
		c0.193,0.771,0.676,1.447,1.545,1.932l0.965,0.578c0.193,0.193,0.29,0.193,0.483,0.193c0.097,0,0.193-0.096,0.29-0.193
		L337.721,186.012z M339.652,188.619l-1.931-1.158l-2.511-1.545c-0.676-0.484-1.159-0.869-1.545-1.354
		c-0.386-0.578-0.58-1.352-0.676-2.123c0-0.871,0.193-1.643,0.676-2.416c0.386-0.674,0.869-1.158,1.448-1.545
		c0.387-0.289,0.966-0.482,1.449-0.482c0.386-0.096,0.772-0.096,1.159,0c0.193,0,0.483,0.098,0.676,0.193
		c0.483,0.098,1.063,0.387,1.738,0.773l3.959,2.51l-0.193,0.387l-0.869-0.482c-0.193-0.193-0.29-0.193-0.483-0.193l-3.863,5.891
		c0,0.096-0.096,0.289,0,0.387c0,0.096,0.193,0.193,0.29,0.289l0.87,0.58L339.652,188.619z M427.137,180.41v0.967l-0.386,0.289
		l-2.027-2.414l0.386-0.289c0.772,0.578,1.545,0.869,2.221,0.869c0.772,0,1.352-0.291,1.931-0.678
		c0.483-0.385,0.772-0.867,0.869-1.352c0.097-0.482,0-0.869-0.193-1.158c-0.193-0.289-0.386-0.387-0.676-0.482
		c-0.193,0-0.482,0-0.772,0.096c-0.386,0-0.869,0.291-1.545,0.676c-1.062,0.58-1.738,0.869-2.221,0.967
		c-0.483,0.193-0.966,0.193-1.353,0.096c-0.386-0.096-0.675-0.385-0.965-0.676c-0.483-0.58-0.58-1.256-0.483-2.027
		c0.193-0.773,0.676-1.545,1.448-2.125c0.773-0.676,1.642-0.965,2.608-1.063l0.097-1.063l0.386-0.289l2.028,2.512l-0.29,0.289
		c-0.772-0.58-1.545-0.869-2.414-0.869s-1.545,0.289-2.221,0.869c-0.58,0.387-0.869,0.869-0.966,1.352
		c-0.097,0.58,0,1.063,0.29,1.352c0.097,0.291,0.387,0.387,0.58,0.482c0.29,0,0.579,0,0.966-0.096
		c0.29-0.096,0.965-0.387,1.834-0.869c1.062-0.578,1.834-0.869,2.317-0.869c0.676-0.096,1.255,0.193,1.642,0.676
		c0.483,0.58,0.676,1.256,0.483,2.029c-0.097,0.676-0.483,1.352-1.159,1.93c-0.386,0.193-0.772,0.387-1.063,0.58
		C428.103,180.217,427.621,180.314,427.137,180.41 M401.741,194.316l-7.821,1.932l-0.869-2.705l0.483-0.096
		c0.386,0.869,0.869,1.352,1.255,1.641c0.483,0.193,1.062,0.291,1.642,0.098l1.931-0.482c0.193,0,0.29-0.098,0.386-0.193v-0.289
		l-0.676-2.994l-0.869,0.289c-0.483,0.098-0.772,0.289-1.063,0.676c-0.193,0.291-0.193,0.773-0.096,1.352l-0.483,0.098l-0.966-3.766
		l0.483-0.193c0.193,0.676,0.483,1.061,0.772,1.254c0.386,0.193,0.773,0.291,1.352,0.098l0.772-0.193l-0.869-3.186
		c0-0.193-0.096-0.193-0.193-0.291h-0.483l-1.545,0.387c-1.642,0.482-2.414,1.545-2.221,3.379l-0.482,0.098l-0.58-3.092l8.111-2.027
		l0.097,0.482l-0.676,0.098c-0.29,0.098-0.386,0.193-0.483,0.289c-0.096,0.098-0.096,0.193-0.096,0.387l1.641,6.471
		c0,0.193,0.097,0.289,0.193,0.289h0.483l0.772-0.193L401.741,194.316z M385.326,193.641c-0.58,0.096-1.063,0.289-1.448,0.482
		c-0.387,0.387-0.58,0.773-0.483,1.449c0,0.482,0.193,0.771,0.387,1.063c0.193,0.191,0.386,0.385,0.676,0.385
		c0.193,0.098,0.483,0.098,0.869,0.098c0.193,0,0.482-0.098,0.772-0.098c0.579,0,0.869-0.096,0.966-0.193
		c0.193-0.096,0.193-0.191,0.193-0.289l-0.29-3.09l-1.255,0.096C385.616,193.641,385.423,193.641,385.326,193.641 M385.326,189.006
		l4.249-0.387v0.387l-0.965,0.096c-0.193,0.098-0.386,0.098-0.483,0.193s-0.097,0.193-0.097,0.289l0.676,6.76
		c0,0.098,0.097,0.193,0.193,0.291c0.096,0.096,0.29,0.096,0.483,0.096l0.965-0.193l0.097,0.482l-5.118,0.482
		c-1.159,0.193-1.932,0.098-2.511-0.289c-0.58-0.289-0.966-0.771-0.966-1.447c-0.097-0.291,0-0.678,0.193-0.967
		c0.193-0.289,0.483-0.578,0.869-0.771c0.386-0.291,1.062-0.484,1.931-0.58c-0.676-0.096-1.159-0.193-1.352-0.289
		c-0.29-0.193-0.482-0.291-0.676-0.58c-0.193-0.193-0.386-0.58-0.676-1.256c-0.193-0.482-0.387-0.869-0.483-0.965
		c-0.193-0.193-0.29-0.193-0.483-0.193c-0.096,0-0.193,0.096-0.29,0.289c-0.193,0.193-0.193,0.482-0.193,0.967h-0.483
		c0-1.256,0.483-1.932,1.545-2.125c0.29,0,0.676,0,0.87,0.193c0.29,0.096,0.482,0.289,0.676,0.482
		c0.096,0.193,0.193,0.771,0.483,1.643c0.097,0.482,0.193,0.771,0.386,1.061c0.193,0.193,0.483,0.291,0.773,0.387
		c0.096,0,0.193,0.098,0.386,0.098h0.772l0.772-0.098l-0.29-3.283c0-0.193-0.097-0.289-0.193-0.289
		c-0.097-0.098-0.29-0.098-0.483-0.098l-0.579,0.098h-0.386l-0.097-0.387L385.326,189.006z M377.504,197.986l-8.111-0.484v-2.799
		h0.483c0.097,0.965,0.386,1.545,0.772,1.932c0.386,0.385,0.869,0.578,1.448,0.578l2.028,0.193c0.193,0,0.29-0.098,0.386-0.098
		c0.097-0.096,0.097-0.191,0.097-0.385l0.193-2.994h-0.869c-0.483-0.096-0.869,0.098-1.159,0.291
		c-0.29,0.289-0.482,0.676-0.579,1.254h-0.482l0.29-3.861h0.386c0,0.676,0.193,1.061,0.482,1.352
		c0.29,0.387,0.676,0.482,1.159,0.482l0.773,0.096l0.193-3.379c0-0.096,0-0.193-0.096-0.289c-0.097-0.098-0.29-0.098-0.483-0.098
		l-1.642-0.096c-1.642-0.098-2.704,0.771-3.09,2.607l-0.482-0.098l0.386-3.09l8.305,0.387v0.482l-0.676-0.096
		c-0.29,0-0.483,0.096-0.58,0.096c-0.097,0.098-0.193,0.193-0.193,0.387l-0.386,6.662c0,0.193,0.096,0.289,0.193,0.387
		c0.097,0,0.193,0.096,0.386,0.096h0.869V197.986z M351.722,193.736l-3.959-1.545l0.193-0.387l0.676,0.291
		c0.29,0.096,0.483,0.096,0.579,0.096c0.097,0,0.193-0.096,0.29-0.193v-0.289l-0.386-6.471l-4.249,4.152
		c0,0.098-0.097,0.193-0.193,0.387s-0.097,0.387,0,0.482c0.097,0.193,0.29,0.291,0.579,0.387l0.58,0.289l-0.097,0.387l-3.476-1.352
		l0.097-0.387l0.29,0.098c0.193,0.096,0.482,0.096,0.772,0c0.29-0.098,0.579-0.291,0.869-0.58l5.601-5.408l0.483,0.193l0.483,8.305
		c0,0.291,0.096,0.482,0.193,0.676c0.096,0.193,0.29,0.291,0.482,0.387l0.387,0.098L351.722,193.736z"/>
	<path fill="#A90A2E" d="M32.491,237.031c-6.974-1.467-11.745-4.131-14.318-7.986H15.97h-0.276c0-2.383-2.383-4.404-7.159-6.057
		c-1.122,0-2.034,0.172-2.753,0.506v-6.564H0v5.783c1.242,0,2.814,0.531,4.707,1.578c-0.557,0.627-0.852,1.469-0.852,2.551
		c9.912,8.447,17.622,14.139,23.128,17.072c3.674-1.834,5.507-3.395,5.507-4.682V237.031z"/>
	<path fill="#A90A2E" d="M260.374,17.066l2.245,0.693c-1.637,0.123-3.302,0.287-4.988,0.486c-1.924-3.887-4.722-7.132-8.416-9.72
		c-7.709-5.402-17.811-8.104-30.287-8.104c-22.027,0-43.969,6.626-65.807,19.873c-4.596,2.788-8.702,5.648-12.331,8.579
		c-11.961,9.657-18.672,20.085-20.129,31.285c-0.202,1.554-0.305,3.123-0.305,4.707c0,6.174,2.203,9.261,6.608,9.261
		c1.833,0,3.666-0.705,5.507-2.122c1.833-1.411,2.754-3.533,2.754-6.367c0-5.528,1.124-10.872,3.368-16.031
		c3.81-8.761,10.854-16.989,21.137-24.681c4.146-3.101,8.285-5.804,12.42-8.118c12.153-6.803,24.258-10.211,36.315-10.211
		c7.032,0,12.829,1.245,17.412,3.712c4.882,2.627,8.385,6.641,10.488,12.064c-6.749,1.774-13.55,3.986-20.187,6.521
		c-5.471,2.09-10.833,4.395-15.942,6.889c-16.95,5.785-33.453,14.093-45.605,23.333c-19.625,15.331-9.449,25.784,10.902,10.453
		c1.375-1.046,2.824-2.082,4.332-3.105c11.438-7.772,26.389-14.818,40.45-19.536c10.521-3.529,20.532-5.748,28.206-5.996
		c-1.249,11.417-7.955,24.28-20.144,38.597c-2.258,2.651-4.511,5.127-6.758,7.459c-4.172,2.679-8.573,5.365-13.16,8.025
		c-7.62,4.419-15.753,8.765-24.205,12.882c-0.981,0.485-1.912,0.948-2.82,1.4c-5.743,2.859-10.056,5.071-13.262,6.863
		c-7.928,4.43-9.125,6.311-8.63,9.158c0.513,3.444,1.399,4.804,9.798,6.041c3.498,0.516,8.29,1.01,14.914,1.625
		c18.294,1.827,30.786,5,39.584,10.614c0.816,2.563,1.234,5.258,1.234,8.094c0,16.727-7.899,34.41-23.68,53.061
		c-15.789,18.648-38.091,34.73-66.908,48.236c-1.653,0.773-3.312,1.52-4.975,2.25c-1.043,0.459-2.089,0.902-3.136,1.344H104.63
		h-0.551h-1.927l-3.029,1.928h-3.029c-1.837-1.834-6.978-3.486-15.419-4.957c-1.468,0.42-2.377,0.715-2.767,0.895
		c-0.275-3.369-7.333-5.598-21.188-6.678c-1.101-1.832-4.035-3.484-8.811-4.955l-4.681,1.102c-1.282-0.732-2.108-1.102-2.478-1.102
		c-1.282-3.305-2.934-4.955-4.956-4.955c-2.753,1.471-4.13,2.938-4.13,4.404v3.029c0,1.285,2.297,3.398,6.883,6.332
		c9.913,1.473,14.869,3.949,14.869,7.436c9.016,3.119,15.9,6.57,20.656,10.344c0.28,0.223,0.555,0.445,0.82,0.67
		c0-0.301,0.003-0.574,0.007-0.832c0.023-1.486,0.115-2.316,0.269-2.473c0,0.564,0.896,1.189,2.679,1.875
		c2.644,1.016,7.25,2.164,13.813,3.445c3.424,0.668,7.376,1.373,11.867,2.113c1.282-0.551,2.203-0.826,2.753-0.826
		c1.102,0,3.029,0.646,5.783,1.928l6.057-1.102l6.333,1.377c0-1.102,0.641-1.832,1.927-2.203c1.652,0,3.854,0.736,6.608,2.203
		c1.467-0.916,2.844-1.377,4.13-1.377c1.828,0,3.665-0.039,5.509-0.113c2.618-0.797,5.173-1.615,7.64-2.434
		c12.369-3.953,24.642-9.488,36.05-15.941c31.267-12.193,60.298-32.725,74.802-51.646c7.647-9.91,12.164-21.43,13.084-32.365
		c0.431-5.111,0.078-10.098-1.114-14.73c-4.325-18.304-20.898-35.18-39.602-42.067c-1.407-0.518-2.826-0.979-4.252-1.38
		c-0.867-0.244-1.737-0.465-2.609-0.664c-1.714-0.391-3.435-0.703-5.157-0.908c-5.985-0.692-11.222-2.077-11.97-2.77
		s6.733-5.541,16.458-10.39c2.894-1.377,5.881-2.932,8.91-4.609c24.38-13.504,51.601-35.477,56.924-45.95
		C301.52,28.84,288.054,14.988,260.374,17.066 M70.212,255.754h-0.551c-0.365,0-0.551-0.275-0.551-0.826
		c0-0.365,0.186-0.551,0.551-0.551c0.37,0,0.551,0.186,0.551,0.551V255.754z M176.525,237.164
		c18.353-12.734,32.766-26.5,43.229-41.289c5.418-7.66,9.421-15.197,12.034-22.617c2.099,22.93-18.822,49.172-53.211,68.711
		c-6.603,2.615-13.515,5.002-20.694,7.117c-1.042,0.303-2.091,0.59-3.142,0.869C162.689,245.979,169.959,241.719,176.525,237.164
		 M255.885,154.893c4.505,13.07,0.201,27.701-10.818,41.791c3.337-9.867,4.072-20.002,1.872-28.859
		c-2.032-8.906-6.851-17.473-13.335-24.734c-1.812-4.73-4.954-9.324-9.444-13.781c-1.297-1.286-2.697-2.505-4.184-3.668
		C240.419,130.345,250.143,138.943,255.885,154.893 M267.319,54.233c1.239-4.078,2.445-9.04,3.617-14.897
		c-1.133-3.078-2.511-5.911-4.131-8.502c0.618,0.014,1.218,0.042,1.798,0.085c8.229,0.692,9.725,1.385,10.474,5.541
		C279.613,40.677,275.236,46.944,267.319,54.233"/>
	<text transform="matrix(1 0 0 1 328.6396 231.5869)" fill="#A90A2E" font-family="'MyriadPro-Semibold'" font-size="19.4669">1993 - 2023</text>
	<path fill="#A90A2E" d="M924.955,78.819c1.27,0,3.015,2.944,3.015,3.728c0,0.424-0.629,1.633-0.821,2.311
		c-0.131,0.487-0.041,1.27-0.041,1.694v5.552c0,0.424-1.378,5.021-1.378,5.443c0,0.424,0.517,2.541,0.517,2.965
		s-0.344,5-0.344,5.424c0,0.424,0.344,1.272,0.344,1.696c0,0.421-0.178,0.622-0.236,0.77c0.062,0.316,0.063,5.903,0.063,6.263
		c0,0.846-0.515,2.118-0.515,2.542s0.515,2.205,0.515,2.629s-0.69,2.638-0.862,3.818l0.348,12.283c0,0.424-0.199,0.313-0.35,0.454
		v1.981c0.005,0.909,0.716,2.278,1.513,3.274c1.048,0.178,2.798-0.746,3.827,0.449c-0.082,0.883-0.936,2.594-2.1,3.422
		c-1.054,0.762-2.199,0.924-3.471,1.305c-0.021,0-3.9,2.502-4.676,2.502c-1.443,0-1.717-1.855-2.037-2.76
		c-0.287-0.799,0.057-0.461,0.057-0.885s-0.426-1.02-0.836-1.422c-0.26-0.254-0.457-0.186-0.887-0.186
		c-1.744,0-6.418,3.725-7.925,3.725c-0.429,0-1.263-0.381-1.823-0.465c-1.356-0.23-2.854,0.146-4.147-0.279
		c-1.291-0.424-2.688-1.002-3.81-1.705c-0.774-0.484-1.46-1.455-2.084-2.152c-1.615-1.822-4.348-3.604-4.736-5.975
		c-0.344-2.099-1.658-5.608-1.658-6.03c0-0.424,0.859-2.88,0.859-3.304c0-0.424-0.516-1.272-0.516-1.696s1.129-3.722,1.945-5.459
		c0.712-1.503,1.287-2.014,1.545-3.368c0.105-0.551,0.379-1.114,0.702-1.56c0.884-1.249,2.167-2.43,3.243-3.363
		c0.519-0.464,1.656-0.245,2.432-0.627c1.57-0.763,3.502-0.744,5.01-1.191c0.688-0.212,1.66-0.957,2.091-0.957
		s0.862,0.276,1.206,0.276c0.862,0,2.324-0.106,2.756-0.106s1.418-0.104,2.087,0.044c0.88,0.191,2.306,0.804,2.737,0.804
		c1.205,0,2.67-0.509,2.67-2.121c0-0.423-0.174-0.678-0.174-2.541c0-0.339-0.428-0.647-0.471-1.006
		c-0.108-0.848-0.217-2.044-0.217-2.468s0.688-3.39,0.688-3.813c0-1.633-1.205-3.029-1.205-3.39c0-0.424,0.496-0.662,0.518-1.192
		c0.129-2.372,0.172-2.537,0.172-2.96s0.042-2.193-0.561-2.914c-1.615-1.906-4.951-2.744-4.951-4.713
		c0-1.463,1.119-2.542,2.518-2.542h2.197c0.432,0,0.69-0.381,1.034-0.466c1.034-0.251,2.09-0.042,3.103-0.273
		C922.91,80.03,924.523,78.819,924.955,78.819L924.955,78.819z M910.14,113.563c-4.179,0-3.53,0.158-8.656,2.936
		c-0.603,0.317-1.146,1.127-1.536,1.677c-0.451,0.614-0.456,1.43-0.801,2.042c-0.689,1.25-0.438,2.009-0.805,3.284
		c0.195,0.207,0.17,0.315,0,6.941c0.691,1.88,1.173,3.95,2.119,5.453c1.314,2.099,3.266,3.909,5.159,4.883
		c1.651,0.848,2.192,1.141,2.767,1.234c0.445,0.072,0.909,0.025,1.925,0.025c1.399,0,1.987-0.133,3.474-0.641
		c0.797-0.277,1.779-0.174,2.596-0.619c0.712-0.383,1.406-1.148,1.871-1.736c0.242-1.653,1.104-4.885,1.104-5.309
		c0-0.424-0.347-0.679-0.347-1.103s0.347-1.524,0.347-1.948s-0.519-4.661-0.519-5.085c0-0.424,0.346-3.305,0.346-3.729
		c0-1.886-0.049-1.382-0.932-3.799c-0.496-1.335-2.064-2.165-3.421-2.864c-0.925-0.488-1.844-1.298-2.77-1.594
		C911.416,113.398,910.57,113.563,910.14,113.563L910.14,113.563z M785.938,112.96c-2.885,0-6.075,0.964-8.81,4.268
		c-0.474,0.573-0.854,1.36-1.048,1.889c-0.302,0.806-0.17,1.731-0.45,2.368c-0.841,1.865-0.806,3.149-0.806,4.842v2.332
		c0,0.423,0.457,1.168,0.629,1.7c0.15,0.485-0.021,1.034,0.109,1.521c0.192,0.679,0.645,1.529,0.866,2.219
		c0.136,0.181,0.478,0.513,0.579,0.673c0.189,0.749,0.506,1.964,1.131,2.346c1.724,1.041,4.35,3.59,6.051,4.079
		c1.314,0.383,3.557,0.914,3.985,0.914c0.431,0,3.995-1.021,5.853-1.719c0.258-0.535,0.799-1.164,0.887-1.566
		c0.409-1.653,1.1-4.85,1.1-5.274s-0.26-0.652-0.302-0.862c-0.13-0.678,0.066-1.342,0.066-1.852c0-1.354,0-2.712-0.108-5.426
		c-0.043-1.186,0.193-2.375,0.108-3.392c-0.066-0.678-0.627-1.328-0.757-1.877c-0.28-1.102,0.085-2.71-0.647-3.431
		C791.079,113.471,788.994,112.96,785.938,112.96L785.938,112.96z M801.182,78.895c0.431,0,0.89,0.207,1.17,0.396
		c2.195,1.547,1.932,2.696,1.932,4.008c0,0.424-0.24,1.988-0.412,2.815c-0.151,0.699-0.794,1.595-0.794,2.019
		c0,0.421,0.172,4.063,0.386,9.666c-0.045,0.184,0.13-0.007,0.13,0.417c0,0.421-1.206,3.071-1.206,3.495v36.228
		c0,4.894,4.48,0.976,4.48,4.683c0,1.27-0.676,2.873-2.12,3.488c-1.29,0.549-3.041,0.426-4.481,0.953
		c-1.357,0.488-3.391,1.828-3.821,1.828c-1.872,0-1.809-3.785-1.867-4.467c-0.1-0.15-0.26-0.305-0.405-0.457
		c-0.312,0.01-0.836-0.084-1.138,0.043c-2.542,1.082-5.465,3.016-7.94,3.523c-2.025,0.424-2.259,0.17-2.689,0.17
		c-0.429,0-2.396-0.066-3.387-0.404c-0.905-0.32-1.957-0.73-2.947-1.367c-0.539-0.359-1.063-1.295-1.729-1.803
		c-2.563-1.951-4.331-5.035-5.495-7.66c-0.259-0.617-0.2-1.38-0.287-2.059c-0.063-0.508-0.517-1.187-0.582-1.696
		c-0.106-0.846-0.214-1.875-0.214-2.892c0-2.54-0.172-2.794-0.172-3.218c0-0.424,0.044-1.422,0.217-2.056
		c0.15-0.551,0.563-1.173,0.755-1.703c0.562-1.462,0.63-3.807,2.424-5.273c0.055-0.151,0.233-0.335,0.333-0.488
		c0.061-0.49-0.213-1.456,0.304-1.898c2.499-2.162,5.257-2.77,8.077-3.976c0.518-0.212,1.145-0.787,1.897-1.083
		c0.968-0.381,2.099-0.344,3.132-0.344c0.517,0,1.463-0.212,1.895-0.212c0.431,0,0.775,0.339,1.206,0.339s0.519-0.339,0.946-0.339
		c0.432,0,1.637,0.339,2.068,0.339s2.309-0.339,3.486-0.559c0.664-0.93,1.509-2.494,1.509-2.915c0-1.696-1.354-3.385-1.034-5.095
		l0.173-9.311c-0.429-6.564-5.684-3.771-5.684-8.308c0-1.015,2.261-2.626,3.208-2.626h3.576c0.428,0,1.48-1.373,2.406-1.649
		C799.307,79.215,800.752,78.895,801.182,78.895L801.182,78.895z M595.757,111.775c1.076,0,1.981,4.065,3.187,4.065
		c0.97,0,5.234-2.581,5.578-2.666c0.494-0.127,1.215-0.213,1.715-0.274c0.154-0.099,0.308-0.28,0.739-0.28h4.435
		c2.047,0,3.528,0.984,6.092,2.254c1.076,0.532,1.377,1.724,1.637,2.55c0.558,1.694,1.338,3.569,1.682,5.27l0.174,9.171
		c-0.177,0.69-0.305,1.529-0.41,2.207c-0.044,0.339-0.624,0.94-0.624,1.364v3.688c0,0.424,0.622,1.166,0.794,1.865
		c0.323,1.313,0.043,2.939,0.452,4.23c0.429,1.379,0.647,1.064,0.647,2.145c0,2.268-2.087,3.051-3.702,3.051
		c-0.431,0-1.046-0.238-1.585-0.475c-1.076-0.465-3.67,0.137-3.67-2.152l0.174-14.415c0.172-0.855,0.859-2.45,0.859-2.874
		c0-0.422-0.515-1.524-0.515-1.948c0-0.424,0.515-1.27,0.515-1.693s-0.861-2.183-0.861-2.607v-2.414
		c0-0.466-2.531-3.524-3.048-3.759c-0.647-0.273-1.345-0.436-2.032-0.436c-0.519,0-1.122-0.105-1.55-0.105
		c-2.412,0-4.779,0.476-7.191,1.894c-2.454,1.462-2.197,5.267-2.197,7.259c0,0.424,0.344,4.32,0.344,4.744s-0.862,3.392-0.862,3.815
		c0,0.422,0.297,5.351,1.244,7.937c0.259,0.74,4.786,3.439,4.786,4.518c0,1.549-2.994,2.713-3.79,2.713
		c-0.431,0-1.486-0.637-2.174-0.809c-1.164-0.297-2.598,0.131-3.955-0.104c-0.561-0.086-1.333-0.188-1.764-0.525
		c-0.603-0.488-1.408-1.93-1.408-2.354v-6.994c0-0.42,1.032-2.752,1.032-3.176v-18.179c0-0.422-0.667-1.112-1.162-1.388
		c-0.904-0.506-3.488,0.288-3.488-1.727c0-1.375,4.315-2.538,4.744-2.496c0.69,0.061,1.39,0.254,2.035,0.066
		C593.708,112.414,595.326,111.775,595.757,111.775L595.757,111.775z M692.138,114.484c-0.429,0-3.083,0.41-4.591,0.895
		c-1.055,0.339-2.234,0.895-2.923,1.677c-0.368,0.403-0.754,1.307-0.747,1.729v0.918c2.028,0.794,4.28,1.008,6.789,1.562
		l3.811-0.171c1.279-0.297,2.313-1.395,2.313-2.285c0-0.424-0.812-1.762-1.004-2.08
		C694.752,115.139,693.473,114.484,692.138,114.484L692.138,114.484z M692.484,111.605c1.637,0,2.002,0.288,3.73,1.295
		c5.323,0.695,7.466,4.741,7.466,8.195c0,0.424-0.028,2.214-0.416,3.168c-0.278,0.697-1.974,2.425-2.944,2.425
		c-0.428,0-2.037-1.173-3.135-1.661c-0.797-0.36-1.863-0.353-2.895-0.374c-3.705-0.127-2.764-0.509-4.141-0.636
		c-0.691-0.063-1.549,0.212-3.441,0.127c-1.251-0.063-3.098-1.187-3.529-1.187c-1.507,0-2.065,0.702-2.065,1.95
		c0,0.424-0.518,2.966-0.518,3.389c0,1.611,0.087,1.185,0.171,5.592c0,0.53,0.549,1.145,0.959,1.823
		c0.604,0.996,1.154,2,2.059,3.038c1.119,1.292,2.09,3.511,3.642,3.978c1.291,0.383,4.689,1.926,6.435,1.926
		c1.077,0,2.719-1.609,3.129-1.971c0.666-0.613,2.668-1.51,3.012-2.547c0.109-0.318,0.193-0.945,0.604-1.348
		c0.259-0.255,0.921-0.406,1.352-0.406c1.164,0,1.553,0.931,1.553,1.695c0,0.424-0.479,2.162-0.759,3.158
		c-0.042,0.168-0.282,0.59-0.542,0.824c-0.968,0.867-2.499,2.555-3.081,3.766c-0.257,0.57-1.792,1.123-2.224,1.271
		c-0.539,0.191-1.045,0.271-1.539,0.504c-0.52,0.254-1.226,0.641-1.925,0.814l-7.775-0.172c-4.899-1.504-10.236-6.852-10.751-11.26
		c-0.411-3.538,0.105-4.412,0-6.614c-0.046-1.23-1.035-3.055-1.035-3.479c0-0.424,0.542-1.213,0.801-1.977
		c0.432-1.271,0.73-2.939,1.141-4.402c0.258-0.911,0.452-1.737,0.689-2.543c0.28-0.911,0.855-2.019,1.564-2.909
		c0.647-0.806,1.938-0.93,2.734-1.439c2.131-1.354,4.139-3.187,6.57-3.804C689.038,111.394,692.053,111.605,692.484,111.605
		L692.484,111.605z M636.325,110.25c1.767,0,0.322,2.88,2.583,2.88c0.432,0,2.153-1.015,2.585-1.015
		c0.431,0,0.946,0.507,1.378,0.507c0.431,0,2.152-0.676,2.584-0.676c0.43,0,1.575,0.554,2.351,0.787
		c1.485,0.443,3.078,0.398,4.658,0.447c0.37,0.311,0.57,0.714,0.57,1.138c0,1.8-1.894,1.421-1.894,4.237
		c0,0.424,0.796,1.871,0.969,2.951c0.322,1.845,1.113,4.261,2.061,6.421c0.279,0.636,0.434,1.576,0.625,2.211
		c0.326,1.06,1.615,2.152,2.13,3.382c0.172,0.403,0.095,2.829,1.536,2.829c0.431,0,0.643-0.327,0.9-0.473
		c0.286-1.117,1.242-1.984,2.061-3.383c0.861-1.503,0.898-3.608,1.479-5.238c0.26-0.763,1.011-1.458,1.27-2.369
		c0.582-1.969,1.957-5.653,1.957-6.077c0-2.968-3.617-2.501-3.617-4.325c0-1.015,1.356-1.185,1.809-1.185
		c0.431,0,4.221,0.169,4.65,0.169s0.948,0.339,1.379,0.339c0.43,0,0.86-0.339,1.207-0.339c3.1,0,3.186,0.169,3.615,0.169
		c0.431,0,1.205-0.339,1.637-0.339s0.986,0.346,1.366,0.549v0.598c-1.06,0.702-2.257,1.451-3.483,2.002
		c-0.646,0.276-1.604,0.259-2.25,0.448c-1.507,0.447-2.598,2.122-3.18,3.14c-1.594,2.777-2.561,5.881-3.959,8.976
		c-0.129,0.297-0.035,0.811-0.035,1.234s-1.166,2.125-1.512,3.163c-0.151,0.487-0.109,1.231-0.281,1.698
		c-0.494,1.229-1.623,2.492-2.482,3.912c-0.174,0.275-0.033,0.887-0.033,1.311c0,0.426-1.508,3.559-1.854,5.104
		c-0.15,0.658-0.129,1.381-0.28,2.035c-0.172,0.701-0.622,1.523-0.824,2.422c-0.226,0.018-0.142,0.188-0.572,0.188
		c-1.161,0-1.997-3.34-2.04-3.443c-0.581-1.527-1.1-3.27-1.552-4.754c-0.904-2.901-1.763-5.859-2.925-8.634
		c-0.475-1.145-1.072-2.301-1.783-3.552c-0.344-0.613-0.222-1.408-0.458-2.044c-0.28-0.742-0.946-1.458-1.269-2.2
		c-0.344-0.782-0.302-1.738-0.627-2.544c-0.688-1.717-1.313-3.581-2.065-5.424c-0.217-0.572-3.71-2.829-4.853-2.829
		c-1.613,0-3.099,2.53-3.187,3.818l-0.344,24.403c-0.065,2.119,2.583,2.732,2.583,4.064c0,1.379-4.133,1.781-4.392,1.781
		c-0.432,0-1.378-0.338-1.809-0.338c-0.432,0-0.604,0.168-2.316,0.168c-0.678,0.168-1.368,0.508-2.07,0.678
		c-1.565-0.168-1.729,0-1.936-0.006c-0.198-0.186-0.342-0.168-0.532-0.242c-0.535-0.629-1.241-1.785-1.241-2.209
		c0-1.652,5.36-2.428,5.854-5.768l0.345-6.646c0-0.424-0.085-0.042-0.329-0.069v-2.814c-0.016-0.424,0.184-0.017,0.334-0.161v-8.484
		c-0.005-0.424-0.09-0.042-0.342-0.094c0.191-0.261,0.337-0.455,0.337-0.879c0-0.424-0.345-0.339-0.345-0.763
		c0-0.424,0.345,0.084,0.345-0.339c0-0.424-0.704-2.134-1.093-3.279c-0.303-0.888-1.836-2.4-1.836-2.824
		c0-0.654,0.318-1.392,1.094-1.646c1.293-0.423,2.99-0.784,4.478-1.293C635.242,111.102,634.99,110.25,636.325,110.25
		L636.325,110.25z M765.467,110.084c0.77,0.473,0.461,1.771,0.612,2.258c0.196,0.679,0.822,1.634,0.822,2.057
		c0,0.424-1.126,2.553-1.687,3.931c-0.105,0.297,0.137,0.648,0.137,1.072l-0.175,23.29c0.171,0.494,0.265,1.234,0.716,1.828
		c0.54,0.721,1.524,1.572,1.524,1.996c0,1.527-2.647,2.035-3.38,2.035h-4.953c-0.43,0-1.658,0.678-2.087,0.678
		c-1.356,0-3.877,0.15-3.877-2.627c0-1.461,1.133-1.879,2.983-2.576c0.151-0.043,0.588-0.041,0.855,0.127
		c0.125-0.623,1.324-1.771,1.626-2.178c0.237-0.314,0.499-0.795,0.499-1.305c0-0.678,0.066-1.588,0.066-2.011v-17.331
		c0-0.424-0.403-2.935-0.922-4.183c-0.386-0.957-2.009-2.002-2.009-2.829c0-1.526,5.071-2.812,5.396-2.939
		C762.605,110.974,764.438,109.931,765.467,110.084L765.467,110.084z M743.645,109.91c1.615,0,7.207,1.757,7.207,1.757
		c0.389,0.339,2.44,2.84,2.44,3.665c0,0.424-1.446,2.063-1.856,3.166c-0.279,0.782-0.11,1.74-0.454,2.546
		c-0.386,0.891-2.664,2.424-3.373,2.424c-0.841,0-2.866-2.191-3.04-2.403c-0.236-0.296-0.406-0.901-0.406-1.324
		c0-0.659,0.41-1.017,0.862-1.017c0.429,0,0.859,0.339,1.291,0.339c0.237,0,1.466-0.405,1.466-1.102c0-2.478-2.434-2.12-3.359-2.12
		c-2.283,0-3.705,0.085-3.705,2.968c0,1.778-0.142,2.624,1.064,4.531c0.817,1.291,1.908,2.614,3.048,3.887
		c0.238,0.254,0.917,0.412,1.303,0.709c1.745,1.354,3.967,3.547,4.85,5.413c0.365,0.784,0.243,2.322,0.243,2.746
		s1.205,3.644,1.205,4.068s-0.669,1.166-0.82,1.717c-0.172,0.637-0.004,1.432-0.284,2.047c-0.431,0.951-1.35,1.547-2.146,2.395
		c-0.389,0.424-1.001,1.779-1.97,2.16c-0.518,0.213-1.196,0.514-1.907,0.684c-2.023,0.488-5.877,1.084-6.308,1.084
		c-2.089,0-2.426-0.393-5.118-1.598c-0.754-0.34-3.323-3.447-3.323-4.76c0-0.422,0.417-3.15,1.083-4.609
		c0.172-0.403,0.813-0.561,1.244-0.561c0.428,0,0.581,0.203,0.871,0.557c1.063,3.914,2.529,6.563,5.931,6.563
		c2.198,0,6.374-1.717,6.374-4.49c0-1.379-0.337-2.043-0.919-3.357c-0.172-0.381-0.511-1.109-1.008-1.491
		c-2.928-2.248-5.267-4.546-7.829-7.535c-0.622-0.718-1.213-1.58-1.731-2.49c-0.344-0.593-0.527-1.559-0.634-2.404
		c-0.065-0.509-0.777-1.171-0.799-1.701c-0.129-2.035-0.172-2.292-0.172-2.716s0.347-2.386,0.542-3.618
		C737.355,111.721,740.006,109.91,743.645,109.91L743.645,109.91z M713.414,109.91c5.232,0,2.713,5.422,4.823,5.422
		c0.431,0,0.761-0.457,1.171-0.626c2.002-0.912,4.169-4.626,6.258-4.626h2.242c2.259,1.323,2.646,2.162,2.646,4.004v3.178
		c0,0.72-2.089,1.971-2.325,1.971c-0.431,0-4.136-0.848-4.564-0.848c-3.727,0-6.526,6.609-6.098,8.364
		c0.061,0.165-0.104,0.534-0.104,0.704c-0.175,3.223-0.347,5.676-0.347,6.101s0.16,0.462,0.275,0.65
		c0.071,0.869-0.101,2.315-0.101,2.739c0,3.115,1.203,2.287,1.203,3.984c0,0.424-0.344,1.016-0.344,1.439
		c0,0.426,0.172,0.594,0.172,1.02c0,1.99,3.246,3.559,4.107,4.342c0.26,0.234,0.373,0.656,0.373,1.078
		c0,1.42-2.78,1.611-3.037,1.611h-9.777c-1.055,0-2.002-1.334-2.002-2.203c0-1.291,2.846-2.436,3.039-3.156
		c0.129-0.488,0.066-1.023,0.235-1.518l-0.172-16.92c-0.17-0.497-0.516-1.164-0.646-1.866c-0.193-0.994-0.045-2.81-0.045-3.233
		s-0.998-2.772-1.773-4.025c-0.861-1.375-2.529-2.181-3.003-3.75c-0.046-0.169-0.047-0.19-0.047-0.615
		c0-0.551,0.067-1.462,1.468-1.42C711.845,111.837,710.335,109.91,713.414,109.91L713.414,109.91z M824.179,130.585
		c-0.431,0-3.38,1.512-4.499,2.742c-0.623,0.678-0.637,1.794-0.979,2.388c-0.497,0.912-1.498,1.969-1.498,2.393v2.076
		c0,0.869,3.425,2.775,3.877,2.775c0.712,0,1.503-0.938,1.708-1.186c0.11,0.291,0.101,0.508,0.529,0.508
		c0.928,0,3.533-1.25,3.533-2.967c0-0.424-0.045-0.684-0.172-2.379C826.527,134.945,827.582,130.585,824.179,130.585
		L824.179,130.585z M821.854,104.655c0.432,0,1.551,0.508,1.981,0.508s2.153-0.508,2.584-0.508c1.142,0,2.913,1.097,3.452,1.903
		c0.474,0.72,0.582,1.695,1.041,2.43c0.243,1.157,0.584,2.339,0.932,3.536l-0.17,26.796c-0.238,1.826,2.814,2.621,3.924,2.848
		c0.843,1.338,0.725,2.061,0.725,3.418c0,0.549,0.193,1.773-0.43,2.43c-1.831,1.928-2.132,2.232-3.963,2.232
		c-4.436,0-4.111-4.578-5.598-4.578c-1.032,0-2.098,1.463-2.679,1.949c-1.98,1.674-3.889,1.609-5.87,1.609h-3.402
		c-1.979,0-3.381-4.66-3.381-5.316v-5.634c0-0.424,0.813-3.249,1.783-4.605c0.73-1.018,2.781-1.444,3.943-2.122
		c1.832-1.079,3.457-2.004,4.814-3.104c0.582-0.49,1.623-0.208,2.439-0.462c1.658-0.508,2.869-1.508,2.869-3.076
		c0-0.424-0.344-3.729-0.344-4.152c0-0.424,0.344-2.796,0.344-3.22c0-3.432-0.881-4.235-2.129-8.366
		c-0.109-0.424-2.674-2.313-3.385-2.313c-0.429,0-1.411,0.49-1.689,0.975c-0.431,0.742-0.539,1.971-0.97,2.713
		c-0.28,0.466-1.112,0.525-1.501,0.907c-1.227,1.187-0.92,5.745-3.333,5.745c-1.595,0-2.671-3.326-2.671-3.898
		c0-0.89,0.43-1.261,1.334-2.341c0.346-0.424,0.207-1.199,0.638-1.538C815.49,107.575,819.098,104.655,821.854,104.655
		L821.854,104.655z M551.917,96.181c-1.335,0-1.538,1.1-2.702,2.923c-0.473,0.719-0.365,1.733-0.796,2.37
		c-0.58,0.869-1.427,1.688-1.795,2.558c-0.473,1.121-1.255,3.147-1.255,3.571v3.769c0,0.424,0.732,1.512,0.798,2.191
		c0.085,0.848-0.231,1.762,0.113,2.567c0.172,0.403,0.888,0.669,1.104,1.027c0.28,0.467,0.193,1.271,0.452,1.696
		c0.947,1.484,2.037,2.73,3.071,3.684c0.712,0.657,1.804,0.424,2.643,0.424c0.928,0,2.843,0.424,2.843-1.608
		c0-0.425-0.862-2.966-0.862-3.39s0.438-1.541,0.89-2.155c0.386-0.549,1.096-0.758,1.439-1.182s0.106-1.27,0.452-1.694
		c0.516-0.615,1.479-1.225,2.125-1.858c0.841-0.848,1.072-2.438,1.454-3.232c0.162-0.158,0.101-0.303,0.532-0.303
		c0.41,0,1.035,0.447,1.035,1.081v3.771c0,2.841,3.271,3.095,3.271,6.336c0,0.994,0.127,1.09-1.079,2.572
		c-0.947,1.167-2.096,2.296-3.193,3.145c-0.432,0.339-1.082,0.535-1.557,0.959c-2.259,2.075-4.452,4.574-6.67,4.892
		c-0.711,0.085-1.474,0.634-1.906,0.634h-7.534c-0.432,0-2.002-1.22-2.669-2.002c-1.057-1.229-1.314-2.817-2.176-3.856
		c-0.256-0.297-1.809-1.345-1.813-1.703v-7.398c1.906-1.305,1.899-2.751,1.899-4.105c0-0.424,0-1.361-0.198-4.979
		c-0.233-0.023-0.405-0.193-0.591-0.191c-1.088,0.342-1.517,1.958-2.014,2.574c-1.183,1.46-4.602,3.705-5.012,6.651
		c-0.066,0.467-0.971,1.896-0.971,2.638c0,1.799,2.24,3.602,2.24,4.979v2.92c0,0.509,3.062,5.634,3.686,6.247
		c3.121,3.074,6.59,4.77,9.82,5.384c0.431,0.085,0.673,0.551,0.867,0.575c1.034,0.127,2.939,0.399,3.37,0.399
		c0.431,0,1.124-0.06,3.536-0.168c0.862-0.042,1.715-0.657,2.426-0.806c0.839-0.169,1.77-0.066,2.588-0.278
		c1.077-0.273,2.188-0.935,3.286-1.422c1.227-0.53,2.82-0.697,3.959-1.187c0.476-0.188,1.212-0.042,1.679-0.287
		c0.25-0.285,0.612-0.763,0.612-1.187l0.172-30.521c-0.174-0.523-0.236-3.123-1.462-3.123c-1.357,0-1.722,2.205-5.686,2.205
		c-0.428,0-2.928-0.849-3.359-0.849c-0.968,0-3.382,0.309-4.094,0.733c-2.475,1.505-1.611,2.318-3.227,2.318
		c-1.507,0-1.809-0.912-1.809-2.288c0-0.488,1.979-2.829,2.196-2.935c0.732-0.403,1.594-0.772,1.594-1.726
		C553.638,96.88,552.733,96.181,551.917,96.181L551.917,96.181z M560.443,91.096c0.172,0,0.334,0.172,1.724,0
		c4.856,0.808,4.478,2.882,8.267,2.882c5.835,0,1.96-2.713,6.633-2.713c1.743,0,4.478,0.255,4.478,2.629
		c0,1.95-2.756,2.374-2.756,3.58v15.381c0,0.424,0.69,6.463,0.69,6.887c0,0.422-0.28,3.307-0.518,8.393
		c-0.085,2.032-0.193,2.702,0,5.754c0.042,0.761-0.28,3.14,1.725,3.14c0.947,0,0.452-0.667,1.592-1.303
		c0.603-0.339,2.023-0.561,2.455-0.561c0.431,0,0.728,0.007,1.095,0.193c0,0,0.198-0.023,0.198,0.4c0,0.507-1.767,2.954-1.969,4.612
		c-0.982,1.035-1.875,2.445-3.06,3.354c-2.327,1.781-4.988,2.516-7.464,4.91c-0.627,0.592-2.495,0.936-2.925,0.936
		c-0.453,0-2.153-0.486-2.153-1.25v-2.076c0-0.424,0.648-1.162,0.799-1.859c0.171-0.828,0.235-2.355,0.235-2.779
		c0-1.23-0.453-2.545-1.552-2.545c-1.182,0-2.906,2.498-4.049,3.703c-1.034,1.08-2.245,2.338-3.387,3.33
		c-0.407,0.363-1.314,0.299-1.896,0.787c-1.896,1.547-4.706,2.5-6.256,2.521c-7.299,0.146-4.417,0.338-6.632,0.338
		c-0.432,0-0.634,0.061-2.853-0.17c-2.605-0.277-5.029-0.943-7.784-2.51c-0.904-0.51-2.129-0.467-3.098-0.951
		c-1.078-0.553-2.018-1.879-2.685-3.023c-0.452-0.783-1.378-1.332-1.788-2.031c-0.28-0.467-0.193-1.273-0.452-1.693
		c-1.528-2.542-1.496-2.099-1.496-3.689c0-0.422-0.968-1.677-1.161-2.607c-0.151-0.66-0.002-1.534-0.111-2.381
		c-0.063-0.509-0.624-1.451-0.624-1.875s0.862-2.435,0.862-2.859v-5.128c0-0.424,0.657-1.82,1.088-2.563
		c0.277-0.488,1.138-0.758,1.438-1.352c0.215-0.443,0.137-1.093,0.46-1.536c0.54-0.745,1.467-1.107,1.962-1.701
		c0.346-0.424,0.267-1.204,0.44-1.67c0.302-0.806,1.409-2.288,1.969-3.069c0.452-0.636,0.803-1.494,1.319-2.044
		c1.379-1.484,4.585-3.863,4.585-5.62c0-1.124-0.431-1.187-1.119-1.187c-1.291,0-2.713,1.866-5.427,1.866
		c-0.431,0-3.961-1.866-4.392-1.866c-0.688,0-2.153,1.103-2.153,1.802v2.499c0,1.082-1.507,2.532-1.68,3.929
		c-0.129,0.999,0.208,2.313-0.288,3.416c-0.216,0.509-1.22,0.897-1.651,0.897c-0.431,0-1.077-1.152-1.595-1.724
		c-0.667-0.761-1.745-1.296-2.478-2.208c-0.603-0.74-0.488-2.491-0.233-3.283c0-0.158-0.172-0.334,0-2.705
		c0-0.165-0.347-0.418-0.347-0.843s0.187-0.384,0.288-0.54c0.059-0.322-0.113-0.902-0.113-1.326c0-0.806,1.352-2.549,2.449-3.248
		c0.646-0.403,1.602-0.458,2.44-0.626c0.498-0.106,1.462-1.178,2.216-1.581c0.798-0.424,1.794-0.617,2.591-0.956
		c0.753-0.318,1.693-1.639,2.122-1.639h22.524c2.907,0,0.339,2.035,3.816,2.713c1.363-0.17,1.547,0,1.715,0
		C558.886,94.487,557.668,91.01,560.443,91.096L560.443,91.096z M632.623,85.504c0.428,0,1.549,0.169,1.98,0.169
		c1.27,0,2.125,1.323,2.754,2.784c-0.173,1.714-0.196,1.818,0,2.03c-0.243,0.561-2.108,3.83-3.357,3.83
		c-0.754,0-2.793-1.43-3.137-2.256c-0.13-0.297,0.04-0.876-0.111-1.362c-0.171-0.532-0.801-1.382-0.801-1.806
		s0.537-0.987,0.809-1.312c0.059-0.159,0.057-0.488,0.105-0.674C631.393,86.276,631.803,85.504,632.623,85.504L632.623,85.504z
		 M761.303,85.165c0.432,0,1.969,0.24,2.789,0.556c1.68,0.657,2.121,3.088,2.121,4.021c0,1.929-2.219,4.237-3.791,4.237
		c-1.463,0-0.945-0.542-2.516-1.382c-0.578-1.209-1.447-3.534-1.447-3.958C758.459,88.194,759.925,85.165,761.303,85.165
		L761.303,85.165z M854.672,115.332c-4.309,0-9.196,2.345-9.799,8.382c-0.087,0.869-0.797,1.937-0.797,2.36v5.128
		c0,0.421,0.932,2.699,1.491,4.075c0.108,0.296,0,0.866,0.106,1.187c0.518,1.333,0.23,2.563,1.889,3.538
		c0.28,0.17,0.775,0.15,1.013,0.428c2.002,2.352,4.537,3.375,6.776,3.588c0.732,0.063,1.645,0.467,2.075,0.467
		c0.429,0,3.097-0.434,4.346-1.092c1.616-0.824,1.788-2.42,2.152-3.543c0.216-0.68,0.629-1.358,0.649-1.887
		c0.151-3.56,0.174-10.003,0.174-10.425c0-1.781-0.178-3.015-0.995-5.368c-0.325-0.954,0.132-2.233-0.643-3.079
		C860.375,116.102,857.469,115.332,854.672,115.332L854.672,115.332z M869.83,81.605c2.584,0,3.531,2.329,3.531,4.237
		c0,0.424-1.379,6.101-1.379,6.524s0.344,3.053,0.344,3.477s-0.344,2.711-0.344,3.132c0,0.424,0.344,1.187,0.344,1.611
		c0,0.424-0.861,3.317-1.033,4.836l0.17,32.555c-0.18,0.359-0.342,0.488-0.342,0.912c0,1.44,0.387,3.444,1.161,3.846
		c0.474,0.254,1.173,0.055,1.688,0.096c0.796,0.063,1.988,1.299,2.42,2.213c0.064,0.17,0.07,0.201,0.07,0.625
		c0,1.313-2.539,3.221-3.725,3.221h-2.369c-0.064,0-4.996,2.035-5.189,2.035c-3.102,0-0.259-4.746-3.102-4.746
		c-0.429,0-5.242,2.725-8.064,3.826c-0.624,0.234-1.752,0.072-2.184,0.072c-7.408,0-10.695-5.051-13.385-10.898
		c-0.348-0.785-0.354-1.891-0.462-2.909c-0.043-0.506-0.511-0.867-0.747-1.503c-0.301-0.782-0.222-2.148-0.222-2.572
		c0-0.424-0.085-1.557,0.173-3.57c0.065-0.507,0.457-1.009,0.628-1.541c0.323-0.995,0.13-2.075,0.452-3.05
		c0.345-1.039,0.738-2.278,1.211-3.232c0.365-0.718,1.67-1.401,1.67-1.825c0-0.424-0.344-0.34-0.344-0.764
		c0-1.06,4.354-3.58,4.893-3.683c2.734-0.575,5.445-2.461,7.941-2.417c3.618,0.061,5.425,0.337,5.858,0.337
		c0.429,0,0.866-0.337,1.385-0.294c3.015,0.255,3.694-2.332,3.694-3.773c0-0.424-0.861-2.86-0.861-3.284v-4.789
		c0-0.421,0.434-4.053,0.109-6.064c-0.173-1.084-0.521-2.337-1.188-3.185c-1.788-2.287-4.434-2.633-4.434-4.88
		c0-1.145,1.694-2.351,2.662-2.436c1.206-0.126,2.598-0.126,3.783-0.338c0.709-0.127,1.488-1.032,2.393-1.413
		c0.301-0.127,0.881-0.029,1.396-0.113C868.779,81.82,869.399,81.605,869.83,81.605L869.83,81.605z M1057.252,114.75
		c0.432,0,1.723,0.405,2.605,0.617c0.494,0.106,1.227-0.169,1.68-0.064c1.83,0.443,1.832,1.207,1.832,2.327
		c0,0.424-0.259,1.616-0.301,2.464c-0.109,1.526-0.045,8.3-0.045,8.724c0,0.421-0.432,1.946-0.648,2.982
		c-0.105,0.487,0.066,1.168,0.066,1.804c0,0.551-0.277,1.314-0.277,1.738s0.663,2.846,0.902,4.224
		c0.364,2.18,3.822,4.633,5.89,4.336c1.378-0.17,1.563,0,1.72,0c0.504-0.164,1.279-0.01,1.861-0.391
		c1.809-1.186,4.251-1.525,5.07-3.793c0.408-1.121,0.746-3.104,0.746-3.528c0-0.424-0.513-2.532-0.688-3.726
		c0.172-2.044,0-2.207,0-2.383c0.175-0.857,0.688-2.11,0.688-2.535c0-0.423-0.338-0.397-0.469-0.821
		c-0.214-0.637-0.281-1.543-0.348-2.222c-0.085-0.848,0.217-1.877,0.066-2.704c-0.345-1.696-5.276-2.6-5.276-4.762
		c0-1.249,2.714-2.118,3.271-2.118c0.431,0,1.842,0.346,2.689,0.68l3.938,0.167c3.045-0.615,3.363,3.535,3.363,5.085
		c0,0.424-1.206,8.475-1.206,8.896c0,0.424,0.519,4.067,0.519,4.491c0,0.425-0.519,3.22-0.519,3.644s0.171,4.577,0.171,5
		c0,2.498,4.137,1.078,4.137,2.541c0,0.424-0.516,1.109-1.073,1.449c-0.798,0.49-1.731,1.029-2.614,1.197
		c-0.842,0.148-1.918-0.041-2.756,0.107c-0.884,0.17-2.17,0.975-2.602,0.975c-2.002,0-1.959-2.252-2.963-3.396
		c-2.18,0.049-4.76,2.379-7.021,2.549c-2.928,0.234-4.322-0.17-5.7-0.297c-2.262-0.23-5.415-1.465-6.727-2.779
		c-0.217-0.213-2.48-6.838-2.48-7.77c0-1.159-0.023-0.914-0.028-0.914l0.2-6.121c0.021-1.23,1.206-3.472,1.206-3.896
		c0-0.424-0.085-1.189-0.235-1.846c-0.193-0.867-0.732-1.672-0.926-2.542c-0.15-0.657,0.087-1.392-0.106-2.028
		c-0.322-1.06-0.973-2.567-0.973-2.991C1053.894,115.28,1056.113,114.75,1057.252,114.75L1057.252,114.75z M1140.63,113.054
		c0.429,0,1.067,0.384,1.562,0.445c1.703,0.254,3.608,0.742,5.358,0.791c0.372,0.311,0.572,0.798,0.572,1.221
		c0,1.337-1.55,2.035-1.55,3.985c0,0.424,0.341,1.187,0.45,1.63c0.645,2.436,0.657,5.573,2.402,8.409
		c0.278,0.467,0.239,1.239,0.456,1.705c0.646,1.418,1.738,2.875,2.644,4.401c0.476,0.782-0.052,1.313,0.937,1.313
		c2.005,0,4.053-6.374,4.354-7.899c0.064-0.339,0.523-0.843,0.758-1.371c0.344-0.787,2.469-7.235,2.469-8.018
		c0-1.95-3.271-1.95-3.271-3.9c0-0.74,0.667-1.185,1.141-1.185h4.953c0.43,0,2.943,0.042,4.494-0.064
		c0.861-0.042,2.331-0.445,2.762-0.445c0.432,0,1.232,0.174,1.779,0.36c0,0,0.202-0.021,0.202,0.403s-1.157,1.573-2.104,2.209
		c-1.271,0.869-3.062,0.85-4.311,1.632c-1.398,0.89-2.464,2.375-2.958,3.646c-0.473,1.248-0.883,2.583-1.378,3.896
		c-0.519,1.378-1.484,2.669-1.96,4.065c-0.214,0.636-0.042,1.401-0.279,2.038c-0.28,0.742-1.011,1.523-1.271,2.202
		c-0.237,0.657-0.235,1.396-0.452,2.032c-0.474,1.397-1.875,2.8-2.478,4.241c-0.259,0.615-0.04,1.561-0.278,2.365
		c-0.279,0.912-0.988,1.818-1.269,2.879c-0.345,1.336-0.271,3.289-1.442,4.969h-0.982c-0.348-0.357-0.736-0.861-0.843-1.412
		c-0.366-1.654-1.702-3.416-1.896-4.582c-0.367-2.16-1.375-4.395-2.066-6.597c-0.084-0.32-0.045-0.857-0.105-1.182
		c-0.1-0.156-0.269-0.318-0.408-0.509c-0.049-0.532-0.084-1.225-0.277-1.691c-0.949-2.12-2.287-5.007-2.932-6.956
		c-0.173-0.529-0.754-1.166-0.926-1.695c-0.842-2.499-1.569-5.331-2.69-7.789c-0.257-0.571-5.11-2.766-5.11-3.677
		c0-1.103,1.787-1.694,1.895-1.694c0.432,0,1.551,0.337,1.982,0.337C1138.992,113.563,1140.199,113.054,1140.63,113.054
		L1140.63,113.054z M1107.813,115.089c-0.431,0-0.918,0.361-1.479,0.446c-1.399,0.233-6.616,0.4-6.616,3.792
		c0,0.424,0.012,0.637,0.208,0.938c1.927,0.415,3.817,0.924,5.724,1.435c2.596,0,2.768,0.169,3.198,0.169
		c1.055,0,3.962-0.633,3.962-2.542c0-1.187-2.534-3.681-3.503-4.021C1108.833,115.137,1108.244,115.089,1107.813,115.089
		L1107.813,115.089z M1107.059,112.209h2.198c1.161,0,7.202,2.687,7.308,2.772c0.54,0.421,1.211,1.147,1.85,1.715
		c0.42,1.335,1.286,3.987,1.286,4.411c0,2.751-0.398,4.277-2.469,6.011c-2.421,0.025-4.289-1.924-6.399-1.818
		c-1.033,0.042-2.336,0.207-3.305-0.108c-2.025-0.678-3.429-0.591-5.325-0.846c-1.034-0.148-2.831-0.784-3.263-0.784
		c-2.237,0-1.98,2.311-1.98,3.985c0.066,5.422-0.172,6.117-0.302,6.793c-0.042,0.622,1.063,2.195,1.814,2.456
		c0.186,0.182,0.04,0.328,0.04,0.749c0,0.424,1.02,1.312,1.469,1.988c0.218,0.338,0.086,0.74,0.281,1.014
		c0.688,0.953,1.749,2.154,2.848,2.619c2.004,0.867,5.909,1.922,6.34,1.922c2.304,0,4.906-2.977,6.866-5.393
		c0.344-0.443,1.229-0.878,1.66-0.878c0.884,0,1.55,0.972,1.55,1.523c0,0.426-0.484,2.611-1.109,3.627
		c-0.946,1.547-2.506,2.658-3.799,4.143c-0.387,0.445-1.635,1.406-2.422,1.428c-0.184-0.045-0.313-0.045-0.475-0.006
		c-1.047,0.564-2.639,1.148-4.017,1.148h-6.329c-0.431,0-0.563-0.385-0.906-0.471c-2.605-0.717-6.143-3.975-7.931-6.684
		c-0.796-1.211-1.39-2.719-1.733-4.096c-0.15-0.657,0.127-1.376,0.127-2.051l-0.174-5.079c-0.342-1.856-0.86-1.491-0.86-2.803
		c0-0.426,1.208-4.24,1.769-6.211c0.453-1.59,0.98-3.458,1.908-4.772c1.313-1.82,4.284-3.007,6.008-4.152
		c1.077-0.7,2.048-1.305,3.126-1.6C1104.021,112.401,1106.628,112.209,1107.059,112.209L1107.059,112.209z M953.979,112.717
		c-0.431,0-1.228,0.508-1.657,0.508h-2.367c-0.863,0-3.52,2.073-3.951,2.751c-0.214,0.358-0.81,0.787-0.803,1.21v0.573
		c0.387,0.2,0.775,0.44,1.098,0.483c2.391,0.424,6.734,1.253,7.165,1.253c0.582,0,5.339-0.212,5.339-2.374
		C958.803,114.983,956.285,112.717,953.979,112.717L953.979,112.717z M953.033,109.834c4.501,0,8.018,1.649,11.183,3.915
		c0.452,0.317,0.29,1.271,0.485,1.907c0.797,2.543,0.822,2.08,0.822,3.669c0,1.694-0.302,4.405-3.189,4.405
		c-0.429,0-5.273-0.845-5.705-0.845h-2.369c-0.431,0-2.369-1.018-2.799-1.018h-4.437c-0.429,0-1.228-0.508-1.658-0.508
		c-2.862,0-2.756,1.929-2.756,3.39c0,0.423,0.344,3.306,0.344,3.73s-0.344,2.118-0.344,2.542c0,1.227,1.776,3.856,2.337,4.786
		c0.365,0.593,0.551,1.665,1.133,2.362c0.604,0.742,2.742,2.557,3.881,2.963c1.852,0.654,5.484,1.582,5.915,1.582
		c2.346,0,5.745-4.5,6.435-5.389c0.344-0.448,1.058-0.711,1.488-0.711c1.314,0,1.551,0.972,1.551,1.524
		c0,0.424-0.437,1.279-0.65,1.81c-0.109,0.297-0.028,0.9-0.285,1.367c-1.164,2.035-3.301,4.604-5.477,6.066
		c-0.988,0.656-3.601,0.754-4.032,0.754h-7.881c-0.429,0-1.263-0.748-1.778-0.98c-3.92-1.738-7.087-6.109-8.031-8.728
		c-0.104-0.16-0.46-0.269-0.46-0.692v-7.5c0-0.423-0.471-0.949-0.644-1.479c-0.15-0.487-0.219-1.465-0.219-1.889
		s0.058-0.956,0.229-1.231c1.336-2.099,0.947-4.004,2.305-6.103c0.172-0.273,0.181-0.815,0.268-1.324
		c0.064-0.36,0.612-0.768,0.764-1.043c0.322-0.572,1.182-2.186,1.807-2.692c0.279-0.236,0.779-0.259,1.038-0.45
		c2.669-1.948,4.743-3.234,7.436-3.974C950.727,109.773,952.603,109.834,953.033,109.834L953.033,109.834z M1184.813,128.818
		c-1.42,0-2.239,1.112-3.921,2.15c-0.73,0.446-1.805,0.615-2.408,0.954c-1.896,1.058-0.963,2.647-1.48,3.896
		c-0.148,0.382-0.639,0.497-0.747,0.667c-0.389,0.657-0.573,1.802-0.567,2.226v2.085c2.928,2.867,1.244,3.613,4.905,3.613
		c1.981,0,4.509-0.318,5.974-2.756c0.172-0.297,0.506-0.725,0.485-1.064c-0.302-3.897-0.193-5.251-0.344-8.472
		C1186.645,130.656,1187.096,128.818,1184.813,128.818L1184.813,128.818z M1187.226,96.447c1.271,0,1.435-0.045,2.728,1.037
		c0.281,0.233,0.227,0.941,0.57,1.366c0.516,0.615,1.415,1.215,1.63,1.894c0.452,1.502,0.904,3.18,1.378,4.746
		c0.195,0.636,0.067,1.534,0.24,2.391l-0.344,32.037c0,1.484,1.787,2.959,2.885,3.596c0.756,0.424,2.031-0.189,2.76,0.277
		c1.164,0.764,0.902,2.4,0.902,3.33c0,0.424-0.047,2.549-0.414,3.67c-0.452,1.463-5.036,2.434-5.184,2.434
		c-6.009,0-4.438-6.609-8.011-6.609c-0.432,0-1.271,0.479-1.7,0.986c-0.537,0.654-1.438,2.928-2.664,3.352
		c-1.143,0.404-3.584,1.256-4.014,1.256h-2.886c-0.431,0-2.037,0.182-2.984-0.24c-1.637-0.744-1.827-2.604-2.518-3.873
		c-0.624-1.168-1.126-2.35-1.451-3.578c-0.172-0.635-0.108-1.547-0.108-2.225c0-0.34-0.28-0.594-0.28-1.018
		c0-0.654,0.907-2.56,0.971-2.896c0.302-1.314,0.379-2.933,1.153-4.099c1.162-1.777,3.197-2.979,4.62-4.376
		c0.259-0.254,0.923-0.29,1.225-0.459c0.903-0.508,1.909-1.321,2.772-1.594c0.666-0.212,1.594-0.214,2.414-0.447
		c0.409-0.106,0.814-0.837,1.182-1.069c0.646-0.424,1.643-0.448,2.245-0.787c0.926-0.488,1.545-1.63,2.322-2.12
		c0.05-0.146,0.217-0.455,0.217-0.625c0-2.372,0.172-2.881,0.172-3.305s-0.344-0.848-0.344-1.271s0.344-0.509,0.344-0.933
		s-0.172-4.659-0.172-5.083c0-0.997-0.817-5.484-0.817-5.674c-0.13-2.014-1.296-4.341-3.104-5.486
		c-0.581-0.381-1.937-0.367-2.365-0.367c-3.165,0-3.245,1.767-5.572,5.05c-1.011,1.417-0.631,3.568-0.954,5.219
		c-0.129,0.66-2.002,1.936-2.604,1.936c-1.701,0-2.844-4.282-2.844-5.085c0-1.293,1.331-2.551,2.02-3.524
		c0.322-0.445,0.664-1.333,1.116-1.669c0.26-0.193,0.916-0.307,1.217-0.452c0.905-0.49,1.784-2.063,2.599-1.871
		c0.478-0.588,0.882-1.62,1.526-2.087c2.132-1.545,5.083-0.927,7.624-1.14C1185.626,96.998,1186.795,96.447,1187.226,96.447
		L1187.226,96.447z M1128.227,84.241c1.742,0,3.789,1.868,3.702,4.324l-0.344,54.319c0,0.424-0.073,2.693,0.552,3.945
		c0.322,0.637,2.032,2.324,2.032,3.088c0,1.484-2.346,1.781-2.928,1.781c-0.431,0-6.64-0.213-9.052-0.406
		c-1.055-0.084-1.629-1.27-1.629-1.885c0-0.316-0.049-0.822,0.748-1.055c1.529-0.488,4.591-2.547,4.591-4.367l-0.344-13.22
		c0-0.339,0.344-0.508,0.344-0.933l-0.516-10.507c0-0.424,0.516-2.798,0.516-3.222c0-0.424-0.344-2.626-0.344-3.05
		c0-0.421,0.193-1.105,0.217-1.613c0.127-2.205-0.217-4.572-0.217-4.996s0.344-0.509,0.344-0.933c0-0.999,0.01-1.001,0.014-1.011
		l-0.186-8.988c-0.021-1.248,0.247-3.029-1.136-4.155c-0.473,0.167-1.361,0.678-1.792,0.678c-1.595,0-1.722-1.566-1.722-2.372
		c0-0.421,0.177-1.302,0.394-1.811C1121.472,87.854,1126.611,84.241,1128.227,84.241L1128.227,84.241z M1048.383,83.057
		c1.01,0,1.729,0.954,2.691,0.172c0.23,0.565,0.751,1.521,0.751,1.945c0,0.127-0.474,2.367-0.774,2.707
		c-0.732,0.784-1.412,1.559-2.362,2.216c-0.774,0.528-2.025,0.53-2.93,1.124c-1.638,1.058-1.562,2.737-2.099,3.988
		c-0.453,1.039-0.684,2.694-0.62,3.693l-0.344,41.695c0,1.885,3.163,4.643,3.724,4.77c0.839,0.189,1.943-0.359,2.933-0.061
		c1.163,0.336,2.233,1.1,3.31,2.115c0.28,0.277,0.862,0.572,1.404,1.129c-1.258,2.32-4.295,1.152-6.082,1.893
		c-0.474,0.189-1.213,0.219-1.752,0.238c-2.757,0.127-3.02,0.17-3.449,0.17c-1.552,0-2.972-1.186-5.426-1.186
		c-3.51,0-2.37,2.035-6.289,2.035c-1.141,0-4.393,0.041-4.393-2.291c0-2.646,2.6-1.869,3.827-2.676
		c0.754-0.508,1.597-1.822,2.586-2.438c0.841-0.529,1.684-0.713,1.684-1.494c0-0.426,0.688-1.166,0.688-1.867
		c0.065-10.169-0.301-10.485-0.301-10.845c0-1.186,0.301-3.475,0.301-3.898c0-3.389-0.043-6.185-4.736-6.185l-22.926,0.337
		c-0.529-0.172-1.128-0.337-1.559-0.337h-6.156c-0.884,0-1.658,1.145-1.658,1.781c-0.021,1.693-0.172,2.03-0.172,2.454
		c0,0.424,0.344,2.968,0.344,3.392s-0.344,2.881-0.344,3.305c0,0.424,0.344,1.354,0.344,1.778s-0.238,2.628-0.344,8.051
		c-0.023,1.695,2.035,4.275,3.929,5.803c1.636,1.314,5.372,0.342,5.372,2.672c0,1.482-3.422,2.797-3.789,2.797
		c-0.432,0-1.81-0.508-2.24-0.508c-0.432,0-1.551,0.338-1.981,0.338s-4.735-1.188-5.167-1.188s-3.619,1.02-4.049,1.02
		c-0.432,0-1.291-0.297-1.81-0.297c-1.204,0-2.616,0.23-3.802,0.061c-1.033-0.146-2.219-0.252-3.145-1.037
		c-0.774-0.654-1.752-2.033-1.752-2.459c0-0.508,1.303-1.184,1.797-1.248c1.981-0.254,4.938,1.01,6.768-1.594
		c0.754-1.104,0.609-3.08,0.781-4.203c0.088-0.551,0.584-1.008,0.756-1.537c0.323-0.997,0.063-2.516,0.063-2.94
		c0-0.423,0.344-2.289,0.344-2.713c0-0.424-0.517-3.644-0.517-4.068l0.175-33.627c-0.17-0.497-0.245-1.215-0.568-1.661
		c-0.539-0.742-1.867-1.491-2.299-1.491h-3.229c-0.432,0-2.037-0.803-2.791-1.438c-0.432-0.361-1.037-1.138-1.232-1.666
		c-0.302-0.806-0.086-1.896-0.282-2.724c-0.128-0.55-1.143-1.46-1.143-1.884c0-0.655,1.767-1.27,1.981-1.27
		c0.431,0,6.029,1.524,6.458,1.524c0.433,0,5.601-1.187,6.029-1.187c0.066,0,4.351,1.526,5.168,1.526
		c0.431,0,3.877-0.509,4.308-0.509c1.508,0,5.684,0.467,5.684,3.053c0,2.923-4.378,2.323-5.391,2.747
		c-0.885,0.36-0.875,1.738-1.242,2.138c-1.959,2.141-3.293,3.73-3.184,5.87c0.169,1.352,0,1.531-0.008,1.667
		c0.153,0.144,0.352,0.141,0.352,0.565v4.363c0,0.424-0.198,0.588-0.35,0.732v8.42c0.006,0.424,0.432,0.872,0.712,1.147
		c0.235,0.233,0.599,0.527,0.944,0.591c0.516,0.085,1.298,0.061,1.729,0.061h28.554c0.428,0,0.691-0.337,1.006-0.386
		c0.492-0.761,1.655-1.526,2.324-2.458c0.537-0.761,0.888-1.583,0.909-2.494c0.302-10.338,0.003-11.188,0.045-12.025
		c-0.04-0.155,0.13-0.261,0.13-0.685c0-2.711-0.295-1.385-1.953-5.05c-0.497-1.103-4.228-3.34-5.455-3.34
		c-0.432,0-0.949,0.339-1.378,0.339c-0.431,0-1.762-0.808-2.516-1.55c-0.108-0.105-0.242-0.482-0.242-0.906
		c0-1.526,1.767-3.477,3.274-3.477c0.43,0,1.896,0.848,2.324,0.848c0.432,0,1.359-0.504,2.057-0.676l6.738-0.172
		c0.869,0.172,2.23,0.678,2.662,0.678c0.431,0,2.436-1.013,3.684-1.309C1045.304,83.589,1047.951,83.057,1048.383,83.057
		L1048.383,83.057z"/>
</g>
</svg>
