<svg xmlns="http://www.w3.org/2000/svg" width="100" height="180" viewBox="0 0 100 180"><rect width="100%" height="100%" fill="#DDDDDD"/><path fill="#999999" d="M23.32 93.77h1.82v1.29h-5.6v-1.29h2.05v-5.91q0-.35.02-.72l-1.45 1.22q-.13.1-.25.12-.12.03-.23.01-.11-.02-.19-.08-.09-.05-.13-.11l-.55-.75 3.09-2.63h1.42v8.85ZM33.79 90q0 1.32-.29 2.3-.28.97-.78 1.61-.5.64-1.18.95-.69.31-1.48.31t-1.46-.31q-.68-.31-1.18-.95-.49-.64-.77-1.61-.28-.98-.28-2.3 0-1.33.28-2.3.28-.98.77-1.61.5-.64 1.18-.95.67-.31 1.46-.31.79 0 1.48.31.68.31 1.18.95.5.63.78 1.61.29.97.29 2.3ZM32 90q0-1.1-.16-1.82t-.43-1.15q-.27-.43-.62-.6-.35-.17-.73-.17-.37 0-.71.17-.35.17-.62.6-.26.43-.42 1.15-.16.72-.16 1.82t.16 1.82q.16.72.42 1.15.27.42.62.6.34.17.71.17.38 0 .73-.17.35-.18.62-.6.27-.43.43-1.15Q32 91.1 32 90Zm9.91 0q0 1.32-.29 2.3-.28.97-.78 1.61-.5.64-1.18.95-.69.31-1.48.31t-1.46-.31q-.68-.31-1.18-.95-.49-.64-.77-1.61-.28-.98-.28-2.3 0-1.33.28-2.3.28-.98.77-1.61.5-.64 1.18-.95.67-.31 1.46-.31.79 0 1.48.31.68.31 1.18.95.5.63.78 1.61.29.97.29 2.3Zm-1.79 0q0-1.1-.16-1.82t-.43-1.15q-.27-.43-.62-.6-.35-.17-.73-.17-.37 0-.71.17-.35.17-.62.6-.26.43-.42 1.15-.16.72-.16 1.82t.16 1.82q.16.72.42 1.15.27.42.62.6.34.17.71.17.38 0 .73-.17.35-.18.62-.6.27-.43.43-1.15.16-.72.16-1.82Zm12.9 2.74-.91.91-2.38-2.38-2.39 2.39-.92-.9 2.4-2.4-2.29-2.29.91-.91 2.29 2.29 2.26-2.27.93.91-2.28 2.27 2.38 2.38Zm9.59 1.03h1.82v1.29h-5.6v-1.29h2.05v-5.91q0-.35.02-.72l-1.46 1.22q-.12.1-.25.12-.12.03-.23.01-.11-.02-.19-.08-.08-.05-.13-.11l-.54-.75 3.09-2.63h1.42v8.85Zm6.75.05q.43 0 .75-.12t.54-.34q.22-.22.34-.52.11-.3.11-.65 0-.83-.46-1.26-.47-.43-1.28-.43t-1.27.43q-.46.43-.46 1.26 0 .35.11.65.11.3.33.52.22.22.54.34.32.12.75.12Zm0-7.69q-.38 0-.66.12t-.47.32q-.18.2-.27.45-.09.26-.09.55 0 .3.07.58.08.29.25.51.18.22.46.35.29.13.71.13t.71-.13q.29-.13.46-.35.18-.22.25-.51.07-.28.07-.58 0-.29-.09-.55-.09-.25-.27-.45-.18-.2-.46-.32t-.67-.12Zm1.71 3.65q.92.3 1.36.92.45.62.45 1.52 0 .67-.26 1.22-.26.54-.72.93-.46.38-1.11.59-.64.21-1.43.21-.78 0-1.43-.21-.65-.21-1.11-.59-.46-.39-.72-.93-.25-.55-.25-1.22 0-.9.44-1.52t1.36-.92q-.73-.31-1.1-.87-.37-.57-.37-1.37 0-.57.24-1.07.23-.5.65-.86.42-.37 1.01-.58.58-.2 1.28-.2.7 0 1.29.2.58.21 1 .58.42.36.66.86.23.5.23 1.07 0 .8-.37 1.37-.37.56-1.1.87Zm10.12.22q0 1.32-.28 2.3-.29.97-.79 1.61-.5.64-1.18.95-.68.31-1.47.31-.79 0-1.47-.31-.67-.31-1.17-.95-.5-.64-.78-1.61-.28-.98-.28-2.3 0-1.33.28-2.3.28-.98.78-1.61.5-.64 1.17-.95.68-.31 1.47-.31.79 0 1.47.31.68.31 1.18.95.5.63.79 1.61.28.97.28 2.3Zm-1.78 0q0-1.1-.16-1.82-.17-.72-.43-1.15-.27-.43-.62-.6-.35-.17-.73-.17-.37 0-.72.17t-.61.6q-.27.43-.43 1.15-.15.72-.15 1.82t.15 1.82q.16.72.43 1.15.26.42.61.6.35.17.72.17.38 0 .73-.17.35-.18.62-.6.26-.43.43-1.15.16-.72.16-1.82Z"/></svg>