<svg width="96" height="96" viewBox="0 0 96 96" fill="none" xmlns="http://www.w3.org/2000/svg">
<path d="M26.7693 60.4007H32.3077V74.1909H26.7693V60.4007ZM25.8462 32.8202H33.2308C33.2308 33.8652 32.8418 34.8673 32.1494 35.6062C31.4569 36.3452 30.5178 36.7603 29.5385 36.7603C28.5592 36.7603 27.6201 36.3452 26.9276 35.6062C26.2352 34.8673 25.8462 33.8652 25.8462 32.8202ZM25.8462 21H33.2308V30.8502H25.8462V21ZM34.1539 60.4007H39.6923V74.1909H34.1539V60.4007ZM35.077 32.8202H42.4616C42.4616 33.8652 42.0726 34.8673 41.3801 35.6062C40.6877 36.3452 39.7485 36.7603 38.7693 36.7603C37.79 36.7603 36.8509 36.3452 36.1584 35.6062C35.466 34.8673 35.077 33.8652 35.077 32.8202ZM35.077 21H42.4616V30.8502H35.077V21ZM41.5385 60.4007H47.077V74.1909H41.5385V60.4007ZM44.3077 32.8202H51.6923C51.6923 33.8652 51.3033 34.8673 50.6109 35.6062C49.9185 36.3452 48.9793 36.7603 48 36.7603C47.0208 36.7603 46.0816 36.3452 45.3892 35.6062C44.6967 34.8673 44.3077 33.8652 44.3077 32.8202ZM44.3077 21H51.6923V30.8502H44.3077V21ZM48.9231 60.4007H54.4616V74.1909H48.9231V60.4007ZM53.5385 32.8202H60.9231C60.9231 33.8652 60.5341 34.8673 59.8417 35.6062C59.1492 36.3452 58.2101 36.7603 57.2308 36.7603C56.2515 36.7603 55.3124 36.3452 54.62 35.6062C53.9275 34.8673 53.5385 33.8652 53.5385 32.8202ZM53.5385 21H60.9231V30.8502H53.5385V21ZM56.3077 60.4007H61.8462V74.1909H56.3077V60.4007Z" fill="white"/>
<path d="M30.4615 38.6416C31.2083 38.5064 31.9211 38.2094 32.5561 37.769C33.1911 37.3285 33.7349 36.7539 34.1538 36.0806C34.6579 36.895 35.3433 37.5634 36.1488 38.0257C36.9543 38.4881 37.8546 38.7302 38.7692 38.7302C39.6839 38.7302 40.5842 38.4881 41.3897 38.0257C42.1951 37.5634 42.8806 36.895 43.3846 36.0806C43.8887 36.895 44.5741 37.5634 45.3796 38.0257C46.185 38.4881 47.0854 38.7302 48 38.7302C48.9146 38.7302 49.815 38.4881 50.6204 38.0257C51.4259 37.5634 52.1113 36.895 52.6154 36.0806C53.1194 36.895 53.8049 37.5634 54.6103 38.0257C55.4158 38.4881 56.3161 38.7302 57.2308 38.7302C58.1454 38.7302 59.0457 38.4881 59.8512 38.0257C60.6567 37.5634 61.3421 36.895 61.8462 36.0806C62.2651 36.7539 62.8089 37.3285 63.4439 37.769C64.0789 38.2094 64.7918 38.5064 65.5385 38.6416V54.4906H30.4615V38.6416ZM63.6923 60.4007H69.2308V74.1909H63.6923V60.4007ZM62.7692 32.8202H70.1538C70.1538 33.8652 69.7648 34.8673 69.0724 35.6062C68.38 36.3452 67.4408 36.7603 66.4615 36.7603C65.4823 36.7603 64.5431 36.3452 63.8507 35.6062C63.1582 34.8673 62.7692 33.8652 62.7692 32.8202ZM62.7692 21H70.1538V30.8502H62.7692V21ZM24 56.4606H72V58.4306H24V56.4606Z" fill="white"/>
</svg>
