<svg width="96" height="96" viewBox="0 0 96 96" fill="none" xmlns="http://www.w3.org/2000/svg">
<mask id="path-1-inside-1_348_210" fill="white">
<path d="M76.934 44.2316C76.9336 42.1742 76.2673 40.1801 75.0478 38.5866C73.8282 36.993 72.1303 35.8979 70.2413 35.4864V22.8061C70.2448 22.4802 70.1647 22.1595 70.0096 21.8788C69.8545 21.598 69.6304 21.3679 69.3615 21.2134C69.0926 21.0589 68.7891 20.9859 68.4841 21.0023C68.1791 21.0186 67.8841 21.1238 67.6311 21.3063C58.5959 27.734 43.6376 31.2692 41.6632 31.7334H31.758C28.8505 31.7213 26.0427 32.8636 23.8808 34.9382C21.7189 37.0128 20.3573 39.8713 20.061 42.9577C19.7647 46.0441 20.5547 49.1379 22.2775 51.6371C24.0003 54.1364 26.5327 55.8626 29.3821 56.4799H29.4155L35.8406 70.835C36.1457 71.5514 36.5853 72.1936 37.132 72.7218C37.6788 73.25 38.3212 73.653 39.0196 73.9059C39.6017 74.1165 40.212 74.2251 40.8266 74.2273C41.6834 74.2178 42.5282 74.0107 43.303 73.6203C44.5402 72.9468 45.4972 71.8045 45.9862 70.4173C46.4753 69.0301 46.4611 67.498 45.9466 66.1213L42.3994 56.9084C51.2649 58.8794 59.7813 62.3386 67.6311 67.1569C67.9147 67.3377 68.2377 67.4362 68.5681 67.4426C68.8478 67.4394 69.123 67.366 69.3712 67.2283C69.6332 67.0715 69.8516 66.8436 70.0044 66.5677C70.1572 66.2918 70.2389 65.9776 70.2413 65.6571V52.9768C72.1303 52.5653 73.8282 51.4702 75.0478 49.8767C76.2673 48.2831 76.9336 46.289 76.934 44.2316ZM23.392 44.2316C23.392 41.8639 24.2735 39.5932 25.8424 37.9191C27.4113 36.2449 29.5392 35.3043 31.758 35.3043H40.1239V53.1589H31.758C29.5392 53.1589 27.4113 52.2184 25.8424 50.5442C24.2735 48.87 23.392 46.5993 23.392 44.2316ZM42.8345 67.4783C43.0399 68.016 43.0472 68.6167 42.8547 69.1598C42.6623 69.7029 42.2845 70.1483 41.7971 70.4064C41.5402 70.5465 41.2589 70.6283 40.971 70.6467C40.6831 70.6651 40.3946 70.6198 40.1239 70.5136C39.8422 70.4215 39.5826 70.2653 39.3631 70.0556C39.1435 69.846 38.9692 69.588 38.8523 69.2995L33.2304 56.7298H38.685L42.8345 67.4783ZM66.8949 62.479C59.486 58.4149 51.6111 55.4017 43.4703 53.516V34.9472C51.6111 33.0615 59.486 30.0483 66.8949 25.9842V62.479ZM70.2413 49.2666V39.2037C71.2193 39.5674 72.0671 40.2467 72.667 41.1477C73.2669 42.0486 73.5892 43.1264 73.5892 44.2316C73.5892 45.3368 73.2669 46.4146 72.667 47.3155C72.0671 48.2165 71.2193 48.8959 70.2413 49.2595V49.2666Z"/>
</mask>
<path d="M76.934 44.2316C76.9336 42.1742 76.2673 40.1801 75.0478 38.5866C73.8282 36.993 72.1303 35.8979 70.2413 35.4864V22.8061C70.2448 22.4802 70.1647 22.1595 70.0096 21.8788C69.8545 21.598 69.6304 21.3679 69.3615 21.2134C69.0926 21.0589 68.7891 20.9859 68.4841 21.0023C68.1791 21.0186 67.8841 21.1238 67.6311 21.3063C58.5959 27.734 43.6376 31.2692 41.6632 31.7334H31.758C28.8505 31.7213 26.0427 32.8636 23.8808 34.9382C21.7189 37.0128 20.3573 39.8713 20.061 42.9577C19.7647 46.0441 20.5547 49.1379 22.2775 51.6371C24.0003 54.1364 26.5327 55.8626 29.3821 56.4799H29.4155L35.8406 70.835C36.1457 71.5514 36.5853 72.1936 37.132 72.7218C37.6788 73.25 38.3212 73.653 39.0196 73.9059C39.6017 74.1165 40.212 74.2251 40.8266 74.2273C41.6834 74.2178 42.5282 74.0107 43.303 73.6203C44.5402 72.9468 45.4972 71.8045 45.9862 70.4173C46.4753 69.0301 46.4611 67.498 45.9466 66.1213L42.3994 56.9084C51.2649 58.8794 59.7813 62.3386 67.6311 67.1569C67.9147 67.3377 68.2377 67.4362 68.5681 67.4426C68.8478 67.4394 69.123 67.366 69.3712 67.2283C69.6332 67.0715 69.8516 66.8436 70.0044 66.5677C70.1572 66.2918 70.2389 65.9776 70.2413 65.6571V52.9768C72.1303 52.5653 73.8282 51.4702 75.0478 49.8767C76.2673 48.2831 76.9336 46.289 76.934 44.2316ZM23.392 44.2316C23.392 41.8639 24.2735 39.5932 25.8424 37.9191C27.4113 36.2449 29.5392 35.3043 31.758 35.3043H40.1239V53.1589H31.758C29.5392 53.1589 27.4113 52.2184 25.8424 50.5442C24.2735 48.87 23.392 46.5993 23.392 44.2316ZM42.8345 67.4783C43.0399 68.016 43.0472 68.6167 42.8547 69.1598C42.6623 69.7029 42.2845 70.1483 41.7971 70.4064C41.5402 70.5465 41.2589 70.6283 40.971 70.6467C40.6831 70.6651 40.3946 70.6198 40.1239 70.5136C39.8422 70.4215 39.5826 70.2653 39.3631 70.0556C39.1435 69.846 38.9692 69.588 38.8523 69.2995L33.2304 56.7298H38.685L42.8345 67.4783ZM66.8949 62.479C59.486 58.4149 51.6111 55.4017 43.4703 53.516V34.9472C51.6111 33.0615 59.486 30.0483 66.8949 25.9842V62.479ZM70.2413 49.2666V39.2037C71.2193 39.5674 72.0671 40.2467 72.667 41.1477C73.2669 42.0486 73.5892 43.1264 73.5892 44.2316C73.5892 45.3368 73.2669 46.4146 72.667 47.3155C72.0671 48.2165 71.2193 48.8959 70.2413 49.2595V49.2666Z" fill="white"/>
<path d="M76.934 44.2316L148.934 44.2448L148.934 44.2316L148.934 44.2184L76.934 44.2316ZM70.2413 35.4864H-1.75873V93.4916L54.9175 105.837L70.2413 35.4864ZM70.2413 22.8061L-1.75451 22.0266L-1.75873 22.4163V22.8061H70.2413ZM67.6311 21.3063L109.368 79.9751L109.562 79.8371L109.755 79.6978L67.6311 21.3063ZM41.6632 31.7334V103.733H50.0138L58.1428 101.822L41.6632 31.7334ZM31.758 31.7334L31.4586 103.733L31.6083 103.733H31.758V31.7334ZM29.3821 56.4799L14.1375 126.847L21.6724 128.48H29.3821V56.4799ZM29.4155 56.4799L95.1333 27.066L76.0726 -15.5201H29.4155V56.4799ZM35.8406 70.835L102.082 42.6211L101.826 42.0187L101.558 41.4211L35.8406 70.835ZM39.0196 73.9059L14.4998 141.602L14.5125 141.607L14.5253 141.611L39.0196 73.9059ZM40.8266 74.2273L40.5631 146.227L41.094 146.229L41.6248 146.223L40.8266 74.2273ZM43.303 73.6203L75.7069 137.916L76.7238 137.404L77.724 136.859L43.303 73.6203ZM45.9466 66.1213L113.39 40.9145L113.266 40.5823L113.138 40.2513L45.9466 66.1213ZM42.3994 56.9084L58.0255 -13.3755L-73.0318 -42.5131L-24.7924 82.7784L42.3994 56.9084ZM67.6311 67.1569L106.333 6.44286L105.817 6.11432L105.296 5.79458L67.6311 67.1569ZM68.5681 67.4426L67.1755 139.429L68.2856 139.451L69.3958 139.438L68.5681 67.4426ZM69.3712 67.2283L104.284 130.198L105.325 129.62L106.346 129.009L69.3712 67.2283ZM70.2413 65.6571L142.239 66.1801L142.241 65.9186V65.6571H70.2413ZM70.2413 52.9768L54.9175 -17.3736L-1.75873 -5.02836V52.9768H70.2413ZM31.758 35.3043V107.304V35.3043ZM40.1239 35.3043H112.124V-36.6957H40.1239V35.3043ZM40.1239 53.1589V125.159H112.124V53.1589H40.1239ZM31.758 53.1589L31.758 -18.8411L31.758 53.1589ZM42.8345 67.4783L110.092 41.7786L110.047 41.663L110.003 41.5476L42.8345 67.4783ZM41.7971 70.4064L8.09569 6.78086L7.71641 6.98176L7.33954 7.18717L41.7971 70.4064ZM40.1239 70.5136L66.4241 3.48894L64.4778 2.72524L62.4905 2.07577L40.1239 70.5136ZM38.8523 69.2995L105.58 42.2554L105.1 41.0703L104.578 39.903L38.8523 69.2995ZM33.2304 56.7298V-15.2702H-77.8458L-32.4952 86.1263L33.2304 56.7298ZM38.685 56.7298L105.853 30.7991L88.0681 -15.2702H38.685V56.7298ZM66.8949 62.479L32.2675 125.605L138.895 184.095V62.479H66.8949ZM43.4703 53.516H-28.5297V110.744L27.2224 123.659L43.4703 53.516ZM43.4703 34.9472L27.2224 -35.1955L-28.5297 -22.2811V34.9472H43.4703ZM66.8949 25.9842H138.895V-95.6317L32.2675 -37.1422L66.8949 25.9842ZM70.2413 39.2037L95.3305 -28.2835L-1.75873 -64.3777V39.2037H70.2413ZM70.2413 49.2595L45.152 -18.2278L-1.75873 -0.788114V49.2595H70.2413ZM148.934 44.2184C148.931 26.7786 143.314 9.31845 132.225 -5.17153L17.8706 82.3446C9.2204 71.0417 4.93646 57.5698 4.93401 44.2448L148.934 44.2184ZM132.225 -5.17153C121.071 -19.7461 104.789 -30.6766 85.5651 -34.864L54.9175 105.837C39.4716 102.472 26.5856 93.7322 17.8706 82.3446L132.225 -5.17153ZM142.241 35.4864V22.8061H-1.75873V35.4864H142.241ZM142.237 23.5856C142.373 11.0284 139.304 -1.58326 133.033 -12.9362L6.98644 56.6938C1.02507 45.9023 -1.88341 33.932 -1.75451 22.0266L142.237 23.5856ZM133.033 -12.9362C126.747 -24.315 117.307 -34.277 105.232 -41.2148L33.4906 83.6416C21.9541 77.0129 12.9621 67.5111 6.98644 56.6938L133.033 -12.9362ZM105.232 -41.2148C93.1068 -48.182 79.0327 -51.6677 64.6247 -50.8942L72.3436 92.8987C58.5456 93.6394 45.0783 90.2998 33.4906 83.6416L105.232 -41.2148ZM64.6247 -50.8942C50.2259 -50.1213 36.7036 -45.1625 25.5071 -37.0852L109.755 79.6978C99.0646 87.41 86.1323 92.1586 72.3436 92.8987L64.6247 -50.8942ZM25.8941 -37.3625C26.5993 -37.8642 27.2109 -38.2649 27.7041 -38.5732C28.1986 -38.8824 28.6107 -39.1215 28.9247 -39.2967C29.5332 -39.6362 29.9033 -39.8078 29.9736 -39.8401C30.0543 -39.8772 29.9782 -39.8396 29.729 -39.7422C29.4859 -39.647 29.1581 -39.5261 28.7516 -39.3874C28.3487 -39.2499 27.9231 -39.1136 27.4923 -38.9832C27.0639 -38.8534 26.6661 -38.7402 26.3223 -38.6463C25.9812 -38.5532 25.7127 -38.4845 25.5402 -38.4414C25.3841 -38.4025 25.2949 -38.3815 25.1837 -38.3553L58.1428 101.822C59.9952 101.387 66.8584 99.7615 75.2471 96.8997C82.4494 94.4425 96.2935 89.2763 109.368 79.9751L25.8941 -37.3625ZM41.6632 -40.2666H31.758V103.733H41.6632V-40.2666ZM32.0574 -40.266C9.83934 -40.3584 -10.7846 -31.5845 -25.9704 -17.0123L73.7321 86.8887C62.8701 97.3118 47.8617 103.801 31.4586 103.733L32.0574 -40.266ZM-25.9704 -17.0123C-41.0283 -2.56288 -49.7292 16.4928 -51.6094 36.0766L91.7314 49.8388C90.4439 63.2498 84.4661 76.5884 73.7321 86.8887L-25.9704 -17.0123ZM-51.6094 36.0766C-53.4881 55.6446 -48.5717 75.7177 -37.0032 92.5003L81.5583 10.774C89.6812 22.558 93.0175 36.4437 91.7314 49.8388L-51.6094 36.0766ZM-37.0032 92.5003C-25.3604 109.391 -7.40627 122.18 14.1375 126.847L44.6266 -13.8878C60.4716 -10.4551 73.3611 -1.11776 81.5583 10.774L-37.0032 92.5003ZM29.3821 128.48H29.4155V-15.5201H29.3821V128.48ZM-36.3022 85.8937L-29.8772 100.249L101.558 41.4211L95.1333 27.066L-36.3022 85.8937ZM-30.4013 99.0488C-26.4156 108.407 -20.538 117.12 -12.8919 124.506L87.156 20.9376C93.7085 27.2673 98.7071 34.6964 102.082 42.6211L-30.4013 99.0488ZM-12.8919 124.506C-5.23374 131.904 4.04809 137.817 14.4998 141.602L63.5394 6.20972C72.5943 9.48944 80.5913 14.5961 87.156 20.9376L-12.8919 124.506ZM14.5253 141.611C22.8215 144.613 31.625 146.194 40.5631 146.227L41.0902 2.22781C48.7989 2.25603 56.3819 3.62029 63.5139 6.20048L14.5253 141.611ZM41.6248 146.223C53.6085 146.09 65.25 143.186 75.7069 137.916L10.899 9.32421C19.8064 4.83508 29.7584 2.34561 40.0285 2.23175L41.6248 146.223ZM77.724 136.859C95.3382 127.272 107.769 111.719 113.89 94.3558L-21.9177 46.4788C-16.7748 31.8904 -6.25778 18.6216 8.88195 10.3811L77.724 136.859ZM113.89 94.3558C119.99 77.0542 119.823 58.126 113.39 40.9145L-21.4968 91.3282C-26.9006 76.87 -27.0391 61.0061 -21.9177 46.4788L113.89 94.3558ZM113.138 40.2513L109.591 31.0383L-24.7924 82.7784L-21.2452 91.9914L113.138 40.2513ZM26.7734 127.192C27.7373 127.407 28.8192 127.815 29.9659 128.519L105.296 5.79458C90.7433 -3.13825 74.7925 -9.64777 58.0255 -13.3755L26.7734 127.192ZM28.9296 127.871C40.1644 135.032 53.3595 139.162 67.1755 139.429L69.9607 -4.54395C83.116 -4.28946 95.6651 -0.357023 106.333 6.44286L28.9296 127.871ZM69.3958 139.438C81.7902 139.295 93.7567 136.034 104.284 130.198L34.4587 4.25915C44.4893 -1.30216 55.9054 -4.41659 67.7403 -4.55266L69.3958 139.438ZM106.346 129.009C117.869 122.113 126.904 112.442 132.992 101.447L7.01694 31.6883C12.7996 21.2456 21.397 12.0304 32.3966 5.44741L106.346 129.009ZM132.992 101.447C139.068 90.475 142.151 78.3225 142.239 66.1801L-1.75683 65.1341C-1.67328 53.6328 1.24668 42.1086 7.01694 31.6883L132.992 101.447ZM142.241 65.6571V52.9768H-1.75873V65.6571H142.241ZM85.5651 123.327C104.789 119.14 121.071 108.209 132.225 93.6347L17.8706 6.11857C26.5856 -5.26898 39.4716 -14.0092 54.9175 -17.3736L85.5651 123.327ZM132.225 93.6347C143.314 79.1448 148.931 61.6846 148.934 44.2448L4.93401 44.2184C4.93646 30.8934 9.2204 17.4215 17.8706 6.11857L132.225 93.6347ZM95.392 44.2316C95.392 59.5051 89.7497 75.0185 78.3791 87.1521L-26.6943 -11.314C-41.2028 4.16802 -48.608 24.2228 -48.608 44.2316H95.392ZM78.3791 87.1521C66.86 99.4441 50.1993 107.304 31.758 107.304L31.758 -36.6957C8.87907 -36.6957 -12.0375 -26.9544 -26.6943 -11.314L78.3791 87.1521ZM31.758 107.304H40.1239V-36.6957H31.758V107.304ZM-31.8761 35.3043V53.1589H112.124V35.3043H-31.8761ZM40.1239 -18.8411H31.758V125.159H40.1239V-18.8411ZM31.758 -18.8411C50.1993 -18.8411 66.86 -10.9809 78.3791 1.31108L-26.6943 99.7772C-12.0375 115.418 8.87907 125.159 31.758 125.159L31.758 -18.8411ZM78.3791 1.31108C89.7497 13.4447 95.392 28.9581 95.392 44.2316H-48.608C-48.608 64.2405 -41.2028 84.2952 -26.6943 99.7772L78.3791 1.31108ZM-24.4227 93.178C-30.3315 77.7144 -30.5262 60.6806 -25.0121 45.1162L110.722 93.2034C116.62 76.5528 116.411 58.3175 110.092 41.7786L-24.4227 93.178ZM-25.0121 45.1162C-19.4749 29.4868 -8.13052 15.3756 8.09569 6.78086L75.4985 134.032C92.6995 124.921 104.8 109.919 110.722 93.2034L-25.0121 45.1162ZM7.33954 7.18717C16.1551 2.38229 26.0465 -0.545171 36.3705 -1.20618L45.5715 142.5C56.4714 141.802 66.9254 138.711 76.2546 133.626L7.33954 7.18717ZM36.3705 -1.20618C46.698 -1.86741 56.9531 -0.227407 66.4241 3.48894L13.8238 137.538C23.8361 141.467 34.6682 143.198 45.5715 142.5L36.3705 -1.20618ZM62.4905 2.07577C72.6887 5.40869 81.7177 10.9472 89.0836 17.98L-10.3574 122.131C-2.55244 129.583 6.99575 135.434 17.7573 138.951L62.4905 2.07577ZM89.0836 17.98C96.4343 24.9983 101.966 33.3384 105.58 42.2554L-27.8757 96.3435C-24.0278 105.838 -18.1473 114.694 -10.3574 122.131L89.0836 17.98ZM104.578 39.903L98.9559 27.3334L-32.4952 86.1263L-26.8733 98.6959L104.578 39.903ZM33.2304 128.73H38.685V-15.2702H33.2304V128.73ZM-28.4835 82.6606L-24.334 93.409L110.003 41.5476L105.853 30.7991L-28.4835 82.6606ZM101.522 -0.647391C88.4025 -7.84414 74.3503 -13.2374 59.7182 -16.6268L27.2224 123.659C28.872 124.041 30.5696 124.674 32.2675 125.605L101.522 -0.647391ZM115.47 53.516V34.9472H-28.5297V53.516H115.47ZM59.7182 105.09C74.3503 101.701 88.4025 96.3074 101.522 89.1106L32.2675 -37.1422C30.5696 -36.2108 28.872 -35.5777 27.2224 -35.1955L59.7182 105.09ZM-5.10511 25.9842V62.479H138.895V25.9842H-5.10511ZM142.241 49.2666V39.2037H-1.75873V49.2666H142.241ZM45.152 106.691C31.3423 101.557 20.2173 92.2861 12.7377 81.0535L132.596 1.24183C123.917 -11.7926 111.096 -22.4223 95.3305 -28.2835L45.152 106.691ZM12.7377 81.0535C5.29202 69.8718 1.58922 57.0094 1.58922 44.2316H145.589C145.589 29.2434 141.242 14.2253 132.596 1.24183L12.7377 81.0535ZM1.58922 44.2316C1.58922 31.4538 5.29202 18.5914 12.7377 7.40972L132.596 87.2214C141.242 74.2379 145.589 59.2198 145.589 44.2316H1.58922ZM12.7377 7.40972C20.2173 -3.82289 31.3423 -13.0938 45.152 -18.2278L95.3305 116.747C111.096 110.886 123.917 100.256 132.596 87.2214L12.7377 7.40972ZM-1.75873 49.2595V49.2666H142.241V49.2595H-1.75873Z" fill="white" mask="url(#path-1-inside-1_348_210)"/>
</svg>
