<svg width="48" height="48" viewBox="0 0 48 48" fill="none" xmlns="http://www.w3.org/2000/svg">
<circle cx="24" cy="24" r="24" fill="#95C154"/>
<path d="M18.9311 15.9612C18.9311 17.0424 18.0492 17.9223 16.9655 17.9223C15.8818 17.9223 15 17.0424 15 15.9612C15 14.8799 15.8818 14 16.9655 14C18.0492 14 18.9311 14.8799 18.9311 15.9612ZM15 31.2953H18.8142V19.8411H15V31.2953ZM32.5676 24.728V31.2953H28.7534V25.168C28.7534 23.6309 28.2009 22.5761 26.8197 22.5761C25.7679 22.5761 25.1357 23.281 24.8648 23.9701C24.7639 24.2139 24.7374 24.5531 24.7374 24.8977V31.29H20.9232C20.9232 31.29 20.9709 20.9171 20.9232 19.8411H24.7374V21.463L24.7108 21.5001H24.7374V21.463C25.242 20.6838 26.1504 19.576 28.1743 19.576C30.6871 19.576 32.5676 21.2139 32.5676 24.728Z" fill="white"/>
</svg>
