<svg width="96" height="96" viewBox="0 0 96 96" fill="none" xmlns="http://www.w3.org/2000/svg">
<path d="M39.6 42.2443C38.8574 42.2443 38.1452 42.5655 37.6201 43.1373C37.095 43.7091 36.8 44.4846 36.8 45.2932V51.3909C36.8 52.1995 37.095 52.975 37.6201 53.5468C38.1452 54.1185 38.8574 54.4398 39.6 54.4398C40.3426 54.4398 41.0548 54.1185 41.5799 53.5468C42.105 52.975 42.4 52.1995 42.4 51.3909V45.2932C42.4 44.4846 42.105 43.7091 41.5799 43.1373C41.0548 42.5655 40.3426 42.2443 39.6 42.2443ZM73.2 45.2932C73.9426 45.2932 74.6548 44.9719 75.1799 44.4002C75.705 43.8284 76 43.0529 76 42.2443V30.0489C76 29.2403 75.705 28.4648 75.1799 27.893C74.6548 27.3212 73.9426 27 73.2 27H22.8C22.0574 27 21.3452 27.3212 20.8201 27.893C20.295 28.4648 20 29.2403 20 30.0489V42.2443C20 43.0529 20.295 43.8284 20.8201 44.4002C21.3452 44.9719 22.0574 45.2932 22.8 45.2932C23.5426 45.2932 24.2548 45.6144 24.7799 46.1862C25.305 46.7579 25.6 47.5334 25.6 48.342C25.6 49.1506 25.305 49.9261 24.7799 50.4979C24.2548 51.0697 23.5426 51.3909 22.8 51.3909C22.0574 51.3909 21.3452 51.7121 20.8201 52.2839C20.295 52.8557 20 53.6311 20 54.4398V66.6352C20 67.4438 20.295 68.2193 20.8201 68.7911C21.3452 69.3628 22.0574 69.6841 22.8 69.6841H73.2C73.9426 69.6841 74.6548 69.3628 75.1799 68.7911C75.705 68.2193 76 67.4438 76 66.6352V54.4398C76 53.6311 75.705 52.8557 75.1799 52.2839C74.6548 51.7121 73.9426 51.3909 73.2 51.3909C72.4574 51.3909 71.7452 51.0697 71.2201 50.4979C70.695 49.9261 70.4 49.1506 70.4 48.342C70.4 47.5334 70.695 46.7579 71.2201 46.1862C71.7452 45.6144 72.4574 45.2932 73.2 45.2932ZM70.4 39.7442C68.7784 40.3851 67.3773 41.5541 66.3872 43.0924C65.397 44.6307 64.8659 46.4636 64.8659 48.342C64.8659 50.2205 65.397 52.0534 66.3872 53.5917C67.3773 55.1299 68.7784 56.2989 70.4 56.9398V63.5863H42.4C42.4 62.7777 42.105 62.0022 41.5799 61.4305C41.0548 60.8587 40.3426 60.5375 39.6 60.5375C38.8574 60.5375 38.1452 60.8587 37.6201 61.4305C37.095 62.0022 36.8 62.7777 36.8 63.5863H25.6V56.9398C27.2216 56.2989 28.6227 55.1299 29.6128 53.5917C30.603 52.0534 31.1341 50.2205 31.1341 48.342C31.1341 46.4636 30.603 44.6307 29.6128 43.0924C28.6227 41.5541 27.2216 40.3851 25.6 39.7442V33.0977H36.8C36.8 33.9063 37.095 34.6818 37.6201 35.2536C38.1452 35.8254 38.8574 36.1466 39.6 36.1466C40.3426 36.1466 41.0548 35.8254 41.5799 35.2536C42.105 34.6818 42.4 33.9063 42.4 33.0977H70.4V39.7442Z" fill="white"/>
</svg>
