<svg width="30" height="22" viewBox="0 0 30 22" fill="none" xmlns="http://www.w3.org/2000/svg">
<path d="M10.5 7.85714C10.1022 7.85714 9.72064 8.0227 9.43934 8.3174C9.15804 8.6121 9 9.0118 9 9.42857V12.5714C9 12.9882 9.15804 13.3879 9.43934 13.6826C9.72064 13.9773 10.1022 14.1429 10.5 14.1429C10.8978 14.1429 11.2794 13.9773 11.5607 13.6826C11.842 13.3879 12 12.9882 12 12.5714V9.42857C12 9.0118 11.842 8.6121 11.5607 8.3174C11.2794 8.0227 10.8978 7.85714 10.5 7.85714ZM28.5 9.42857C28.8978 9.42857 29.2794 9.26301 29.5607 8.96831C29.842 8.67361 30 8.27391 30 7.85714V1.57143C30 1.15466 29.842 0.754961 29.5607 0.460261C29.2794 0.165561 28.8978 0 28.5 0H1.5C1.10218 0 0.720644 0.165561 0.43934 0.460261C0.158035 0.754961 0 1.15466 0 1.57143V7.85714C0 8.27391 0.158035 8.67361 0.43934 8.96831C0.720644 9.26301 1.10218 9.42857 1.5 9.42857C1.89782 9.42857 2.27936 9.59413 2.56066 9.88883C2.84196 10.1835 3 10.5832 3 11C3 11.4168 2.84196 11.8165 2.56066 12.1112C2.27936 12.4059 1.89782 12.5714 1.5 12.5714C1.10218 12.5714 0.720644 12.737 0.43934 13.0317C0.158035 13.3264 0 13.7261 0 14.1429V20.4286C0 20.8453 0.158035 21.245 0.43934 21.5397C0.720644 21.8344 1.10218 22 1.5 22H28.5C28.8978 22 29.2794 21.8344 29.5607 21.5397C29.842 21.245 30 20.8453 30 20.4286V14.1429C30 13.7261 29.842 13.3264 29.5607 13.0317C29.2794 12.737 28.8978 12.5714 28.5 12.5714C28.1022 12.5714 27.7206 12.4059 27.4393 12.1112C27.158 11.8165 27 11.4168 27 11C27 10.5832 27.158 10.1835 27.4393 9.88883C27.7206 9.59413 28.1022 9.42857 28.5 9.42857ZM27 6.56857C26.1313 6.89889 25.3807 7.50142 24.8503 8.29426C24.3198 9.0871 24.0353 10.0318 24.0353 11C24.0353 11.9682 24.3198 12.9129 24.8503 13.7057C25.3807 14.4986 26.1313 15.1011 27 15.4314V18.8571H12C12 18.4404 11.842 18.0407 11.5607 17.746C11.2794 17.4513 10.8978 17.2857 10.5 17.2857C10.1022 17.2857 9.72064 17.4513 9.43934 17.746C9.15804 18.0407 9 18.4404 9 18.8571H3V15.4314C3.86873 15.1011 4.61931 14.4986 5.14974 13.7057C5.68017 12.9129 5.96472 11.9682 5.96472 11C5.96472 10.0318 5.68017 9.0871 5.14974 8.29426C4.61931 7.50142 3.86873 6.89889 3 6.56857V3.14286H9C9 3.55963 9.15804 3.95932 9.43934 4.25402C9.72064 4.54872 10.1022 4.71429 10.5 4.71429C10.8978 4.71429 11.2794 4.54872 11.5607 4.25402C11.842 3.95932 12 3.55963 12 3.14286H27V6.56857Z" fill="#95C154"/>
</svg>
