<svg width="116" height="28" viewBox="0 0 116 28" fill="none" xmlns="http://www.w3.org/2000/svg">
<path d="M25.605 10.7088C25.5317 10.4929 25.3967 10.3031 25.2168 10.1629C25.0368 10.0228 24.8197 9.93838 24.5924 9.92018L17.9412 9.39168L15.063 3.02052C14.9714 2.81531 14.8223 2.64103 14.6337 2.51868C14.4452 2.39634 14.2253 2.33118 14.0006 2.33105C13.7758 2.33093 13.5559 2.39585 13.3672 2.51799C13.1785 2.64012 13.0292 2.81425 12.9374 3.01935L10.0592 9.39168L3.40803 9.92018C3.18456 9.93789 2.97092 10.0196 2.79267 10.1555C2.61443 10.2915 2.47912 10.4759 2.40294 10.6867C2.32675 10.8975 2.31292 11.1259 2.3631 11.3443C2.41327 11.5628 2.52533 11.7622 2.68586 11.9187L7.60103 16.7102L5.86269 24.2375C5.80991 24.4654 5.82683 24.7038 5.91125 24.9219C5.99567 25.14 6.1437 25.3278 6.33613 25.4607C6.52856 25.5936 6.7565 25.6657 6.99038 25.6674C7.22425 25.6692 7.45326 25.6007 7.64769 25.4707L14.0002 21.2357L20.3527 25.4707C20.5514 25.6026 20.7858 25.6706 21.0243 25.6653C21.2627 25.6601 21.4939 25.582 21.6867 25.4414C21.8794 25.3009 22.0245 25.1047 22.1024 24.8793C22.1803 24.6538 22.1874 24.4099 22.1225 24.1804L19.9887 16.7137L25.2807 11.9514C25.6272 11.6387 25.7544 11.151 25.605 10.7088V10.7088Z" fill="#F59E0B"/>
<path d="M69.605 10.7088C69.5317 10.4929 69.3967 10.3031 69.2168 10.1629C69.0368 10.0228 68.8197 9.93838 68.5924 9.92018L61.9412 9.39168L59.063 3.02052C58.9714 2.81531 58.8223 2.64103 58.6337 2.51868C58.4452 2.39634 58.2253 2.33118 58.0006 2.33105C57.7758 2.33093 57.5559 2.39585 57.3672 2.51799C57.1785 2.64012 57.0292 2.81425 56.9374 3.01935L54.0592 9.39168L47.408 9.92018C47.1846 9.93789 46.9709 10.0196 46.7927 10.1555C46.6144 10.2915 46.4791 10.4759 46.4029 10.6867C46.3268 10.8975 46.3129 11.1259 46.3631 11.3443C46.4133 11.5628 46.5253 11.7622 46.6859 11.9187L51.601 16.7102L49.8627 24.2375C49.8099 24.4654 49.8268 24.7038 49.9112 24.9219C49.9957 25.14 50.1437 25.3278 50.3361 25.4607C50.5286 25.5936 50.7565 25.6657 50.9904 25.6674C51.2243 25.6692 51.4533 25.6007 51.6477 25.4707L58.0002 21.2357L64.3527 25.4707C64.5514 25.6026 64.7858 25.6706 65.0243 25.6653C65.2627 25.6601 65.4939 25.582 65.6867 25.4414C65.8794 25.3009 66.0245 25.1047 66.1024 24.8793C66.1803 24.6538 66.1874 24.4099 66.1225 24.1804L63.9887 16.7137L69.2807 11.9514C69.6272 11.6387 69.7544 11.151 69.605 10.7088V10.7088Z" fill="#F59E0B"/>
<path d="M113.605 10.7088C113.532 10.4929 113.397 10.3031 113.217 10.1629C113.037 10.0228 112.82 9.93838 112.592 9.92018L105.941 9.39168L103.063 3.02052C102.971 2.81531 102.822 2.64103 102.634 2.51868C102.445 2.39634 102.225 2.33118 102.001 2.33105C101.776 2.33093 101.556 2.39585 101.367 2.51799C101.179 2.64012 101.029 2.81425 100.937 3.01935L98.0592 9.39168L91.408 9.92018C91.1846 9.93789 90.9709 10.0196 90.7927 10.1555C90.6144 10.2915 90.4791 10.4759 90.4029 10.6867C90.3268 10.8975 90.3129 11.1259 90.3631 11.3443C90.4133 11.5628 90.5253 11.7622 90.6859 11.9187L95.601 16.7102L93.8627 24.2375C93.8099 24.4654 93.8268 24.7038 93.9112 24.9219C93.9957 25.14 94.1437 25.3278 94.3361 25.4607C94.5286 25.5936 94.7565 25.6657 94.9904 25.6674C95.2243 25.6692 95.4533 25.6007 95.6477 25.4707L102 21.2357L108.353 25.4707C108.551 25.6026 108.786 25.6706 109.024 25.6653C109.263 25.6601 109.494 25.582 109.687 25.4414C109.879 25.3009 110.024 25.1047 110.102 24.8793C110.18 24.6538 110.187 24.4099 110.123 24.1804L107.989 16.7137L113.281 11.9514C113.627 11.6387 113.754 11.151 113.605 10.7088V10.7088Z" fill="#F59E0B"/>
</svg>
